<svg width="1280" height="832" viewBox="0 0 1280 832" fill="none" xmlns="http://www.w3.org/2000/svg">
<rect width="1280" height="832" fill="white"/>
<rect x="220" y="182" width="840" height="78" fill="#D9D9D9"/>
<path d="M257.287 221.818C257.223 221.278 256.964 220.859 256.509 220.561C256.055 220.263 255.497 220.114 254.837 220.114C254.354 220.114 253.931 220.192 253.569 220.348C253.21 220.504 252.93 220.719 252.727 220.993C252.528 221.266 252.429 221.577 252.429 221.925C252.429 222.216 252.498 222.466 252.637 222.676C252.779 222.882 252.96 223.054 253.18 223.192C253.4 223.327 253.631 223.439 253.873 223.528C254.114 223.613 254.336 223.683 254.538 223.736L255.646 224.034C255.93 224.109 256.246 224.212 256.594 224.343C256.946 224.474 257.282 224.654 257.601 224.881C257.924 225.105 258.191 225.392 258.4 225.744C258.61 226.096 258.714 226.527 258.714 227.038C258.714 227.628 258.56 228.161 258.251 228.636C257.946 229.112 257.498 229.49 256.909 229.771C256.323 230.051 255.611 230.192 254.773 230.192C253.991 230.192 253.315 230.066 252.743 229.814C252.175 229.561 251.728 229.21 251.401 228.759C251.078 228.308 250.895 227.784 250.852 227.188H252.216C252.251 227.599 252.39 227.94 252.631 228.21C252.876 228.477 253.185 228.675 253.558 228.807C253.935 228.935 254.339 228.999 254.773 228.999C255.277 228.999 255.73 228.917 256.131 228.754C256.532 228.587 256.85 228.356 257.085 228.061C257.319 227.763 257.436 227.415 257.436 227.017C257.436 226.655 257.335 226.36 257.132 226.133C256.93 225.906 256.664 225.721 256.333 225.579C256.003 225.437 255.646 225.312 255.263 225.206L253.92 224.822C253.068 224.577 252.393 224.228 251.896 223.773C251.399 223.319 251.151 222.724 251.151 221.989C251.151 221.378 251.316 220.845 251.646 220.391C251.98 219.933 252.427 219.577 252.988 219.325C253.553 219.07 254.183 218.942 254.879 218.942C255.582 218.942 256.207 219.068 256.754 219.32C257.301 219.569 257.734 219.909 258.054 220.343C258.377 220.776 258.548 221.268 258.565 221.818H257.287ZM264.146 230.17C263.358 230.17 262.678 229.996 262.106 229.648C261.538 229.297 261.1 228.807 260.791 228.178C260.485 227.546 260.332 226.811 260.332 225.973C260.332 225.135 260.485 224.396 260.791 223.757C261.1 223.114 261.529 222.614 262.08 222.255C262.634 221.893 263.28 221.712 264.019 221.712C264.445 221.712 264.866 221.783 265.281 221.925C265.696 222.067 266.075 222.298 266.416 222.617C266.756 222.933 267.028 223.352 267.231 223.874C267.433 224.396 267.534 225.039 267.534 225.803V226.335H261.227V225.249H266.256C266.256 224.787 266.163 224.375 265.979 224.013C265.798 223.651 265.538 223.365 265.201 223.155C264.867 222.946 264.473 222.841 264.019 222.841C263.518 222.841 263.085 222.965 262.719 223.214C262.357 223.459 262.078 223.778 261.883 224.173C261.687 224.567 261.59 224.989 261.59 225.44V226.165C261.59 226.783 261.696 227.306 261.909 227.736C262.126 228.162 262.426 228.487 262.809 228.711C263.193 228.931 263.639 229.041 264.146 229.041C264.477 229.041 264.775 228.995 265.041 228.903C265.311 228.807 265.544 228.665 265.739 228.477C265.934 228.285 266.085 228.047 266.192 227.763L267.406 228.104C267.278 228.516 267.064 228.878 266.762 229.19C266.46 229.499 266.087 229.741 265.643 229.915C265.199 230.085 264.7 230.17 264.146 230.17ZM271.854 230.192C271.336 230.192 270.865 230.094 270.443 229.899C270.02 229.7 269.684 229.414 269.436 229.041C269.187 228.665 269.063 228.21 269.063 227.678C269.063 227.209 269.155 226.829 269.34 226.538C269.525 226.243 269.771 226.012 270.08 225.845C270.389 225.678 270.73 225.554 271.103 225.472C271.479 225.387 271.858 225.32 272.238 225.27C272.735 225.206 273.138 225.158 273.447 225.126C273.759 225.091 273.987 225.032 274.129 224.95C274.274 224.869 274.347 224.727 274.347 224.524V224.482C274.347 223.956 274.203 223.548 273.916 223.256C273.631 222.965 273.2 222.82 272.621 222.82C272.021 222.82 271.551 222.951 271.21 223.214C270.869 223.477 270.629 223.757 270.491 224.055L269.297 223.629C269.51 223.132 269.794 222.745 270.15 222.468C270.508 222.187 270.899 221.992 271.321 221.882C271.748 221.768 272.167 221.712 272.579 221.712C272.841 221.712 273.143 221.744 273.484 221.808C273.829 221.868 274.161 221.994 274.48 222.186C274.803 222.377 275.071 222.667 275.285 223.054C275.498 223.441 275.604 223.96 275.604 224.609V230H274.347V228.892H274.283C274.198 229.07 274.056 229.26 273.857 229.462C273.658 229.664 273.394 229.837 273.063 229.979C272.733 230.121 272.33 230.192 271.854 230.192ZM272.046 229.062C272.543 229.062 272.962 228.965 273.303 228.77C273.647 228.574 273.907 228.322 274.081 228.013C274.258 227.704 274.347 227.379 274.347 227.038V225.888C274.294 225.952 274.177 226.01 273.995 226.064C273.818 226.113 273.612 226.158 273.378 226.197C273.147 226.232 272.921 226.264 272.701 226.293C272.484 226.317 272.309 226.339 272.174 226.357C271.847 226.399 271.542 226.468 271.258 226.564C270.977 226.657 270.75 226.797 270.576 226.985C270.405 227.17 270.32 227.422 270.32 227.741C270.32 228.178 270.482 228.509 270.805 228.732C271.131 228.952 271.545 229.062 272.046 229.062ZM277.899 230V221.818H279.113V223.054H279.198C279.347 222.649 279.617 222.321 280.008 222.069C280.399 221.816 280.839 221.69 281.329 221.69C281.421 221.69 281.537 221.692 281.675 221.696C281.814 221.699 281.919 221.705 281.99 221.712V222.99C281.947 222.979 281.849 222.963 281.697 222.942C281.547 222.917 281.389 222.905 281.222 222.905C280.825 222.905 280.47 222.988 280.157 223.155C279.848 223.319 279.603 223.546 279.422 223.837C279.244 224.125 279.156 224.453 279.156 224.822V230H277.899ZM286.555 230.17C285.787 230.17 285.127 229.989 284.573 229.627C284.019 229.265 283.593 228.766 283.295 228.13C282.996 227.495 282.847 226.768 282.847 225.952C282.847 225.121 283 224.387 283.305 223.752C283.614 223.113 284.044 222.614 284.594 222.255C285.148 221.893 285.795 221.712 286.533 221.712C287.108 221.712 287.627 221.818 288.089 222.031C288.55 222.244 288.928 222.543 289.223 222.926C289.518 223.31 289.701 223.757 289.772 224.268H288.515C288.419 223.896 288.206 223.565 287.876 223.278C287.549 222.987 287.108 222.841 286.555 222.841C286.064 222.841 285.635 222.969 285.265 223.224C284.9 223.477 284.614 223.833 284.408 224.295C284.205 224.753 284.104 225.291 284.104 225.909C284.104 226.541 284.204 227.092 284.403 227.56C284.605 228.029 284.889 228.393 285.255 228.652C285.624 228.912 286.057 229.041 286.555 229.041C286.881 229.041 287.178 228.984 287.444 228.871C287.71 228.757 287.936 228.594 288.121 228.381C288.305 228.168 288.437 227.912 288.515 227.614H289.772C289.701 228.097 289.525 228.532 289.244 228.919C288.968 229.302 288.6 229.608 288.142 229.835C287.687 230.059 287.158 230.17 286.555 230.17ZM292.867 225.078V230H291.61V219.091H292.867V223.097H292.973C293.165 222.674 293.453 222.338 293.836 222.09C294.223 221.838 294.738 221.712 295.381 221.712C295.938 221.712 296.427 221.824 296.846 222.047C297.265 222.267 297.59 222.607 297.82 223.065C298.055 223.519 298.172 224.098 298.172 224.801V230H296.915V224.886C296.915 224.237 296.746 223.734 296.409 223.379C296.075 223.02 295.612 222.841 295.019 222.841C294.607 222.841 294.237 222.928 293.911 223.102C293.588 223.276 293.332 223.53 293.144 223.864C292.959 224.197 292.867 224.602 292.867 225.078Z" fill="black"/>
<path d="M441.321 309V298.091H445.135C445.895 298.091 446.522 298.222 447.015 298.485C447.509 298.744 447.876 299.094 448.118 299.534C448.359 299.971 448.48 300.456 448.48 300.989C448.48 301.457 448.397 301.844 448.23 302.15C448.066 302.455 447.85 302.697 447.58 302.874C447.314 303.052 447.024 303.183 446.712 303.268V303.375C447.045 303.396 447.381 303.513 447.718 303.727C448.056 303.94 448.338 304.245 448.565 304.643C448.793 305.04 448.906 305.527 448.906 306.102C448.906 306.649 448.782 307.141 448.533 307.578C448.285 308.015 447.892 308.361 447.356 308.616C446.82 308.872 446.122 309 445.263 309H441.321ZM442.642 307.828H445.263C446.126 307.828 446.738 307.661 447.1 307.327C447.466 306.99 447.649 306.582 447.649 306.102C447.649 305.733 447.555 305.392 447.367 305.08C447.179 304.763 446.911 304.511 446.562 304.323C446.214 304.131 445.803 304.036 445.327 304.036H442.642V307.828ZM442.642 302.885H445.092C445.49 302.885 445.849 302.807 446.168 302.651C446.491 302.494 446.747 302.274 446.935 301.99C447.127 301.706 447.223 301.372 447.223 300.989C447.223 300.509 447.056 300.103 446.722 299.769C446.388 299.431 445.859 299.263 445.135 299.263H442.642V302.885ZM450.906 309V300.818H452.121V302.054H452.206C452.355 301.649 452.625 301.321 453.016 301.069C453.406 300.816 453.847 300.69 454.337 300.69C454.429 300.69 454.545 300.692 454.683 300.696C454.822 300.699 454.926 300.705 454.997 300.712V301.99C454.955 301.979 454.857 301.963 454.704 301.942C454.555 301.917 454.397 301.905 454.23 301.905C453.833 301.905 453.477 301.988 453.165 302.155C452.856 302.319 452.611 302.546 452.43 302.837C452.252 303.125 452.164 303.453 452.164 303.822V309H450.906ZM459.669 309.17C458.881 309.17 458.2 308.996 457.629 308.648C457.061 308.297 456.622 307.807 456.313 307.178C456.008 306.546 455.855 305.811 455.855 304.973C455.855 304.135 456.008 303.396 456.313 302.757C456.622 302.114 457.052 301.614 457.602 301.255C458.156 300.893 458.802 300.712 459.541 300.712C459.967 300.712 460.388 300.783 460.803 300.925C461.219 301.067 461.597 301.298 461.938 301.617C462.279 301.933 462.551 302.352 462.753 302.874C462.955 303.396 463.057 304.039 463.057 304.803V305.335H456.75V304.249H461.778C461.778 303.787 461.686 303.375 461.501 303.013C461.32 302.651 461.061 302.365 460.724 302.155C460.39 301.946 459.996 301.841 459.541 301.841C459.04 301.841 458.607 301.965 458.241 302.214C457.879 302.459 457.6 302.778 457.405 303.173C457.21 303.567 457.112 303.989 457.112 304.44V305.165C457.112 305.783 457.219 306.306 457.432 306.736C457.648 307.162 457.948 307.487 458.332 307.711C458.715 307.931 459.161 308.041 459.669 308.041C459.999 308.041 460.297 307.995 460.564 307.903C460.834 307.807 461.066 307.665 461.262 307.477C461.457 307.285 461.608 307.047 461.714 306.763L462.929 307.104C462.801 307.516 462.586 307.878 462.284 308.19C461.982 308.499 461.61 308.741 461.166 308.915C460.722 309.085 460.223 309.17 459.669 309.17ZM467.377 309.192C466.858 309.192 466.388 309.094 465.965 308.899C465.542 308.7 465.207 308.414 464.958 308.041C464.71 307.665 464.585 307.21 464.585 306.678C464.585 306.209 464.678 305.829 464.862 305.538C465.047 305.243 465.294 305.012 465.603 304.845C465.912 304.678 466.253 304.554 466.626 304.472C467.002 304.387 467.38 304.32 467.76 304.27C468.257 304.206 468.66 304.158 468.969 304.126C469.282 304.091 469.509 304.032 469.651 303.95C469.797 303.869 469.869 303.727 469.869 303.524V303.482C469.869 302.956 469.726 302.548 469.438 302.256C469.154 301.965 468.722 301.82 468.144 301.82C467.544 301.82 467.073 301.951 466.732 302.214C466.391 302.477 466.151 302.757 466.013 303.055L464.82 302.629C465.033 302.132 465.317 301.745 465.672 301.468C466.031 301.187 466.421 300.992 466.844 300.882C467.27 300.768 467.689 300.712 468.101 300.712C468.364 300.712 468.666 300.744 469.007 300.808C469.351 300.868 469.683 300.994 470.003 301.186C470.326 301.377 470.594 301.667 470.807 302.054C471.02 302.441 471.127 302.96 471.127 303.609V309H469.869V307.892H469.806C469.72 308.07 469.578 308.26 469.379 308.462C469.181 308.664 468.916 308.837 468.586 308.979C468.256 309.121 467.852 309.192 467.377 309.192ZM467.568 308.062C468.066 308.062 468.485 307.965 468.825 307.77C469.17 307.574 469.429 307.322 469.603 307.013C469.781 306.704 469.869 306.379 469.869 306.038V304.888C469.816 304.952 469.699 305.01 469.518 305.064C469.34 305.113 469.134 305.158 468.9 305.197C468.669 305.232 468.444 305.264 468.224 305.293C468.007 305.317 467.831 305.339 467.696 305.357C467.369 305.399 467.064 305.468 466.78 305.564C466.499 305.657 466.272 305.797 466.098 305.985C465.928 306.17 465.843 306.422 465.843 306.741C465.843 307.178 466.004 307.509 466.327 307.732C466.654 307.952 467.068 308.062 467.568 308.062ZM474.593 306.017L474.572 304.462H474.827L478.407 300.818H479.962L476.148 304.675H476.042L474.593 306.017ZM473.421 309V298.091H474.678V309H473.421ZM478.62 309L475.424 304.952L476.319 304.078L480.218 309H478.62ZM485.224 300.818V301.884H480.813V300.818H485.224ZM482.134 309V299.689C482.134 299.22 482.244 298.83 482.464 298.517C482.685 298.205 482.971 297.97 483.322 297.814C483.674 297.658 484.045 297.58 484.435 297.58C484.744 297.58 484.996 297.604 485.192 297.654C485.387 297.704 485.533 297.75 485.629 297.793L485.266 298.879C485.202 298.858 485.114 298.831 485 298.799C484.89 298.767 484.744 298.751 484.563 298.751C484.148 298.751 483.848 298.856 483.663 299.066C483.482 299.275 483.391 299.582 483.391 299.987V309H482.134ZM489.159 309.192C488.64 309.192 488.17 309.094 487.747 308.899C487.325 308.7 486.989 308.414 486.741 308.041C486.492 307.665 486.368 307.21 486.368 306.678C486.368 306.209 486.46 305.829 486.645 305.538C486.829 305.243 487.076 305.012 487.385 304.845C487.694 304.678 488.035 304.554 488.408 304.472C488.784 304.387 489.162 304.32 489.542 304.27C490.04 304.206 490.443 304.158 490.752 304.126C491.064 304.091 491.291 304.032 491.433 303.95C491.579 303.869 491.652 303.727 491.652 303.524V303.482C491.652 302.956 491.508 302.548 491.22 302.256C490.936 301.965 490.505 301.82 489.926 301.82C489.326 301.82 488.855 301.951 488.514 302.214C488.173 302.477 487.934 302.757 487.795 303.055L486.602 302.629C486.815 302.132 487.099 301.745 487.454 301.468C487.813 301.187 488.204 300.992 488.626 300.882C489.052 300.768 489.471 300.712 489.883 300.712C490.146 300.712 490.448 300.744 490.789 300.808C491.133 300.868 491.465 300.994 491.785 301.186C492.108 301.377 492.376 301.667 492.589 302.054C492.802 302.441 492.909 302.96 492.909 303.609V309H491.652V307.892H491.588C491.503 308.07 491.361 308.26 491.162 308.462C490.963 308.664 490.698 308.837 490.368 308.979C490.038 309.121 489.635 309.192 489.159 309.192ZM489.351 308.062C489.848 308.062 490.267 307.965 490.608 307.77C490.952 307.574 491.211 307.322 491.385 307.013C491.563 306.704 491.652 306.379 491.652 306.038V304.888C491.598 304.952 491.481 305.01 491.3 305.064C491.123 305.113 490.917 305.158 490.682 305.197C490.451 305.232 490.226 305.264 490.006 305.293C489.789 305.317 489.613 305.339 489.478 305.357C489.152 305.399 488.846 305.468 488.562 305.564C488.282 305.657 488.054 305.797 487.88 305.985C487.71 306.17 487.625 306.422 487.625 306.741C487.625 307.178 487.786 307.509 488.109 307.732C488.436 307.952 488.85 308.062 489.351 308.062ZM500.999 302.651L499.869 302.97C499.798 302.782 499.694 302.599 499.555 302.422C499.42 302.24 499.236 302.091 499.001 301.974C498.767 301.857 498.467 301.798 498.101 301.798C497.6 301.798 497.183 301.914 496.849 302.145C496.519 302.372 496.354 302.661 496.354 303.013C496.354 303.325 496.468 303.572 496.695 303.753C496.922 303.934 497.277 304.085 497.76 304.206L498.975 304.504C499.706 304.682 500.251 304.953 500.61 305.319C500.969 305.681 501.148 306.148 501.148 306.72C501.148 307.189 501.013 307.608 500.743 307.977C500.477 308.347 500.104 308.638 499.624 308.851C499.145 309.064 498.588 309.17 497.952 309.17C497.117 309.17 496.427 308.989 495.88 308.627C495.333 308.265 494.987 307.736 494.841 307.04L496.034 306.741C496.148 307.182 496.363 307.512 496.679 307.732C496.998 307.952 497.416 308.062 497.931 308.062C498.517 308.062 498.982 307.938 499.326 307.69C499.674 307.437 499.848 307.136 499.848 306.784C499.848 306.5 499.749 306.262 499.55 306.07C499.351 305.875 499.046 305.729 498.634 305.634L497.27 305.314C496.521 305.136 495.97 304.861 495.619 304.488C495.271 304.112 495.097 303.641 495.097 303.077C495.097 302.615 495.226 302.207 495.486 301.852C495.748 301.496 496.105 301.218 496.556 301.015C497.011 300.813 497.526 300.712 498.101 300.712C498.911 300.712 499.546 300.889 500.008 301.244C500.473 301.599 500.803 302.068 500.999 302.651ZM506.598 300.818V301.884H502.358V300.818H506.598ZM503.594 298.858H504.851V306.656C504.851 307.011 504.903 307.278 505.006 307.455C505.112 307.629 505.247 307.746 505.411 307.807C505.578 307.864 505.753 307.892 505.938 307.892C506.076 307.892 506.19 307.885 506.279 307.871C506.368 307.853 506.439 307.839 506.492 307.828L506.748 308.957C506.662 308.989 506.543 309.021 506.391 309.053C506.238 309.089 506.044 309.107 505.81 309.107C505.455 309.107 505.107 309.03 504.766 308.877C504.429 308.725 504.148 308.492 503.924 308.18C503.704 307.867 503.594 307.473 503.594 306.997V298.858Z" fill="black"/>
<path d="M579.321 309V298.091H580.642V307.828H585.713V309H579.321ZM592.744 305.655V300.818H594.001V309H592.744V307.615H592.659C592.467 308.031 592.169 308.384 591.764 308.675C591.359 308.963 590.848 309.107 590.23 309.107C589.719 309.107 589.264 308.995 588.866 308.771C588.469 308.544 588.156 308.203 587.929 307.748C587.702 307.29 587.588 306.713 587.588 306.017V300.818H588.845V305.932C588.845 306.528 589.012 307.004 589.346 307.359C589.683 307.714 590.113 307.892 590.635 307.892C590.947 307.892 591.265 307.812 591.588 307.652C591.915 307.493 592.189 307.248 592.409 306.917C592.632 306.587 592.744 306.166 592.744 305.655ZM597.561 304.078V309H596.304V300.818H597.518V302.097H597.625C597.817 301.681 598.108 301.347 598.498 301.095C598.889 300.839 599.393 300.712 600.011 300.712C600.565 300.712 601.05 300.825 601.465 301.053C601.881 301.276 602.204 301.617 602.435 302.075C602.666 302.53 602.781 303.105 602.781 303.801V309H601.524V303.886C601.524 303.244 601.357 302.743 601.023 302.384C600.69 302.022 600.231 301.841 599.649 301.841C599.248 301.841 598.889 301.928 598.573 302.102C598.261 302.276 598.014 302.53 597.833 302.864C597.652 303.197 597.561 303.602 597.561 304.078ZM608.402 309.17C607.635 309.17 606.975 308.989 606.421 308.627C605.867 308.265 605.441 307.766 605.142 307.13C604.844 306.495 604.695 305.768 604.695 304.952C604.695 304.121 604.847 303.387 605.153 302.752C605.462 302.113 605.892 301.614 606.442 301.255C606.996 300.893 607.642 300.712 608.381 300.712C608.956 300.712 609.475 300.818 609.936 301.031C610.398 301.244 610.776 301.543 611.071 301.926C611.366 302.31 611.548 302.757 611.619 303.268H610.362C610.267 302.896 610.053 302.565 609.723 302.278C609.396 301.987 608.956 301.841 608.402 301.841C607.912 301.841 607.482 301.969 607.113 302.224C606.747 302.477 606.461 302.833 606.256 303.295C606.053 303.753 605.952 304.291 605.952 304.909C605.952 305.541 606.051 306.092 606.25 306.56C606.453 307.029 606.737 307.393 607.102 307.652C607.472 307.912 607.905 308.041 608.402 308.041C608.729 308.041 609.025 307.984 609.292 307.871C609.558 307.757 609.784 307.594 609.968 307.381C610.153 307.168 610.284 306.912 610.362 306.614H611.619C611.548 307.097 611.373 307.532 611.092 307.919C610.815 308.302 610.448 308.608 609.99 308.835C609.535 309.059 609.006 309.17 608.402 309.17ZM614.714 304.078V309H613.457V298.091H614.714V302.097H614.821C615.013 301.674 615.3 301.338 615.684 301.09C616.071 300.838 616.586 300.712 617.229 300.712C617.786 300.712 618.274 300.824 618.693 301.047C619.112 301.267 619.437 301.607 619.668 302.065C619.903 302.519 620.02 303.098 620.02 303.801V309H618.763V303.886C618.763 303.237 618.594 302.734 618.257 302.379C617.923 302.02 617.459 301.841 616.866 301.841C616.454 301.841 616.085 301.928 615.758 302.102C615.435 302.276 615.18 302.53 614.991 302.864C614.807 303.197 614.714 303.602 614.714 304.078Z" fill="black"/>
<path d="M692.688 309H689.321V298.091H692.837C693.895 298.091 694.8 298.309 695.553 298.746C696.306 299.179 696.883 299.803 697.284 300.616C697.686 301.425 697.886 302.395 697.886 303.524C697.886 304.661 697.684 305.639 697.279 306.459C696.874 307.276 696.285 307.904 695.511 308.345C694.737 308.782 693.795 309 692.688 309ZM690.642 307.828H692.602C693.504 307.828 694.252 307.654 694.845 307.306C695.438 306.958 695.88 306.463 696.171 305.82C696.462 305.177 696.608 304.412 696.608 303.524C696.608 302.643 696.464 301.885 696.176 301.25C695.889 300.61 695.459 300.12 694.887 299.779C694.316 299.435 693.604 299.263 692.751 299.263H690.642V307.828ZM699.932 309V300.818H701.189V309H699.932ZM700.571 299.455C700.326 299.455 700.115 299.371 699.937 299.204C699.763 299.037 699.676 298.837 699.676 298.602C699.676 298.368 699.763 298.167 699.937 298C700.115 297.833 700.326 297.75 700.571 297.75C700.816 297.75 701.026 297.833 701.2 298C701.377 298.167 701.466 298.368 701.466 298.602C701.466 298.837 701.377 299.037 701.2 299.204C701.026 299.371 700.816 299.455 700.571 299.455ZM704.748 304.078V309H703.491V300.818H704.706V302.097H704.812C705.004 301.681 705.295 301.347 705.686 301.095C706.077 300.839 706.581 300.712 707.199 300.712C707.753 300.712 708.237 300.825 708.653 301.053C709.068 301.276 709.392 301.617 709.622 302.075C709.853 302.53 709.969 303.105 709.969 303.801V309H708.712V303.886C708.712 303.244 708.545 302.743 708.211 302.384C707.877 302.022 707.419 301.841 706.837 301.841C706.435 301.841 706.077 301.928 705.761 302.102C705.448 302.276 705.201 302.53 705.02 302.864C704.839 303.197 704.748 303.602 704.748 304.078ZM713.523 304.078V309H712.266V300.818H713.48V302.097H713.587C713.779 301.681 714.07 301.347 714.46 301.095C714.851 300.839 715.355 300.712 715.973 300.712C716.527 300.712 717.012 300.825 717.427 301.053C717.843 301.276 718.166 301.617 718.397 302.075C718.628 302.53 718.743 303.105 718.743 303.801V309H717.486V303.886C717.486 303.244 717.319 302.743 716.985 302.384C716.651 302.022 716.193 301.841 715.611 301.841C715.21 301.841 714.851 301.928 714.535 302.102C714.222 302.276 713.976 302.53 713.795 302.864C713.613 303.197 713.523 303.602 713.523 304.078ZM724.471 309.17C723.682 309.17 723.002 308.996 722.43 308.648C721.862 308.297 721.424 307.807 721.115 307.178C720.809 306.546 720.657 305.811 720.657 304.973C720.657 304.135 720.809 303.396 721.115 302.757C721.424 302.114 721.853 301.614 722.404 301.255C722.958 300.893 723.604 300.712 724.343 300.712C724.769 300.712 725.19 300.783 725.605 300.925C726.021 301.067 726.399 301.298 726.74 301.617C727.081 301.933 727.352 302.352 727.555 302.874C727.757 303.396 727.858 304.039 727.858 304.803V305.335H721.552V304.249H726.58C726.58 303.787 726.488 303.375 726.303 303.013C726.122 302.651 725.863 302.365 725.525 302.155C725.191 301.946 724.797 301.841 724.343 301.841C723.842 301.841 723.409 301.965 723.043 302.214C722.681 302.459 722.402 302.778 722.207 303.173C722.011 303.567 721.914 303.989 721.914 304.44V305.165C721.914 305.783 722.02 306.306 722.233 306.736C722.45 307.162 722.75 307.487 723.134 307.711C723.517 307.931 723.963 308.041 724.471 308.041C724.801 308.041 725.099 307.995 725.366 307.903C725.635 307.807 725.868 307.665 726.063 307.477C726.259 307.285 726.41 307.047 726.516 306.763L727.731 307.104C727.603 307.516 727.388 307.878 727.086 308.19C726.784 308.499 726.411 308.741 725.967 308.915C725.524 309.085 725.025 309.17 724.471 309.17ZM729.771 309V300.818H730.985V302.054H731.07C731.22 301.649 731.489 301.321 731.88 301.069C732.271 300.816 732.711 300.69 733.201 300.69C733.293 300.69 733.409 300.692 733.547 300.696C733.686 300.699 733.791 300.705 733.862 300.712V301.99C733.819 301.979 733.721 301.963 733.569 301.942C733.419 301.917 733.261 301.905 733.095 301.905C732.697 301.905 732.342 301.988 732.029 302.155C731.72 302.319 731.475 302.546 731.294 302.837C731.117 303.125 731.028 303.453 731.028 303.822V309H729.771Z" fill="black"/>
<rect x="220" y="393" width="226" height="172" fill="#D9D9D9"/>
<rect x="220" y="592" width="226" height="172" fill="#D9D9D9"/>
<rect x="220" y="393" width="226" height="172" fill="#D9D9D9"/>
<rect x="220" y="592" width="226" height="172" fill="#D9D9D9"/>
<rect x="540" y="393" width="226" height="172" fill="#D9D9D9"/>
<rect x="540" y="592" width="226" height="172" fill="#D9D9D9"/>
<rect x="860" y="393" width="226" height="172" fill="#D9D9D9"/>
<rect x="860" y="592" width="226" height="172" fill="#D9D9D9"/>
<path d="M295.321 479V468.091H299.007C299.859 468.091 300.559 468.237 301.106 468.528C301.653 468.815 302.058 469.211 302.32 469.716C302.583 470.22 302.714 470.793 302.714 471.436C302.714 472.079 302.583 472.649 302.32 473.146C302.058 473.643 301.654 474.034 301.111 474.318C300.568 474.598 299.874 474.739 299.028 474.739H296.045V473.545H298.986C299.568 473.545 300.037 473.46 300.392 473.29C300.751 473.119 301.01 472.878 301.17 472.565C301.333 472.249 301.415 471.873 301.415 471.436C301.415 470.999 301.333 470.618 301.17 470.291C301.006 469.964 300.745 469.712 300.387 469.534C300.028 469.353 299.554 469.263 298.964 469.263H296.642V479H295.321ZM300.456 474.099L303.141 479H301.607L298.964 474.099H300.456ZM308.088 479.17C307.299 479.17 306.619 478.996 306.048 478.648C305.479 478.297 305.041 477.807 304.732 477.178C304.427 476.546 304.274 475.811 304.274 474.973C304.274 474.135 304.427 473.396 304.732 472.757C305.041 472.114 305.471 471.614 306.021 471.255C306.575 470.893 307.221 470.712 307.96 470.712C308.386 470.712 308.807 470.783 309.222 470.925C309.638 471.067 310.016 471.298 310.357 471.617C310.698 471.933 310.97 472.352 311.172 472.874C311.374 473.396 311.476 474.039 311.476 474.803V475.335H305.169V474.249H310.197C310.197 473.787 310.105 473.375 309.92 473.013C309.739 472.651 309.48 472.365 309.142 472.155C308.809 471.946 308.415 471.841 307.96 471.841C307.459 471.841 307.026 471.965 306.66 472.214C306.298 472.459 306.019 472.778 305.824 473.173C305.629 473.567 305.531 473.989 305.531 474.44V475.165C305.531 475.783 305.638 476.306 305.851 476.736C306.067 477.162 306.367 477.487 306.751 477.711C307.134 477.931 307.58 478.041 308.088 478.041C308.418 478.041 308.716 477.995 308.983 477.903C309.253 477.807 309.485 477.665 309.68 477.477C309.876 477.285 310.027 477.047 310.133 476.763L311.348 477.104C311.22 477.516 311.005 477.878 310.703 478.19C310.401 478.499 310.028 478.741 309.585 478.915C309.141 479.085 308.642 479.17 308.088 479.17ZM316.712 479.17C315.945 479.17 315.284 478.989 314.73 478.627C314.176 478.265 313.75 477.766 313.452 477.13C313.153 476.495 313.004 475.768 313.004 474.952C313.004 474.121 313.157 473.387 313.462 472.752C313.771 472.113 314.201 471.614 314.752 471.255C315.305 470.893 315.952 470.712 316.69 470.712C317.266 470.712 317.784 470.818 318.246 471.031C318.707 471.244 319.086 471.543 319.38 471.926C319.675 472.31 319.858 472.757 319.929 473.268H318.672C318.576 472.896 318.363 472.565 318.033 472.278C317.706 471.987 317.266 471.841 316.712 471.841C316.222 471.841 315.792 471.969 315.423 472.224C315.057 472.477 314.771 472.833 314.565 473.295C314.363 473.753 314.261 474.291 314.261 474.909C314.261 475.541 314.361 476.092 314.56 476.56C314.762 477.029 315.046 477.393 315.412 477.652C315.781 477.912 316.215 478.041 316.712 478.041C317.038 478.041 317.335 477.984 317.601 477.871C317.868 477.757 318.093 477.594 318.278 477.381C318.462 477.168 318.594 476.912 318.672 476.614H319.929C319.858 477.097 319.682 477.532 319.402 477.919C319.125 478.302 318.757 478.608 318.299 478.835C317.845 479.059 317.315 479.17 316.712 479.17ZM321.767 479V470.818H323.024V479H321.767ZM322.406 469.455C322.161 469.455 321.95 469.371 321.772 469.204C321.598 469.037 321.511 468.837 321.511 468.602C321.511 468.368 321.598 468.167 321.772 468C321.95 467.833 322.161 467.75 322.406 467.75C322.651 467.75 322.861 467.833 323.035 468C323.212 468.167 323.301 468.368 323.301 468.602C323.301 468.837 323.212 469.037 323.035 469.204C322.861 469.371 322.651 469.455 322.406 469.455ZM325.326 482.068V470.818H326.541V472.118H326.69C326.782 471.976 326.91 471.795 327.074 471.575C327.24 471.351 327.478 471.152 327.787 470.978C328.1 470.8 328.522 470.712 329.055 470.712C329.744 470.712 330.351 470.884 330.877 471.228C331.402 471.573 331.813 472.061 332.107 472.693C332.402 473.325 332.549 474.071 332.549 474.93C332.549 475.797 332.402 476.548 332.107 477.184C331.813 477.816 331.404 478.306 330.882 478.654C330.36 478.998 329.758 479.17 329.076 479.17C328.551 479.17 328.13 479.083 327.814 478.909C327.498 478.732 327.255 478.531 327.084 478.308C326.914 478.08 326.782 477.892 326.69 477.743H326.583V482.068H325.326ZM326.562 474.909C326.562 475.527 326.653 476.072 326.834 476.544C327.015 477.013 327.279 477.381 327.627 477.647C327.975 477.91 328.402 478.041 328.906 478.041C329.431 478.041 329.87 477.903 330.222 477.626C330.577 477.345 330.843 476.969 331.021 476.496C331.202 476.021 331.292 475.491 331.292 474.909C331.292 474.334 331.203 473.815 331.026 473.354C330.852 472.888 330.587 472.521 330.232 472.251C329.881 471.978 329.439 471.841 328.906 471.841C328.395 471.841 327.965 471.971 327.617 472.23C327.269 472.485 327.006 472.844 326.828 473.306C326.651 473.764 326.562 474.298 326.562 474.909ZM337.897 479.17C337.109 479.17 336.429 478.996 335.857 478.648C335.289 478.297 334.85 477.807 334.542 477.178C334.236 476.546 334.083 475.811 334.083 474.973C334.083 474.135 334.236 473.396 334.542 472.757C334.85 472.114 335.28 471.614 335.831 471.255C336.385 470.893 337.031 470.712 337.77 470.712C338.196 470.712 338.616 470.783 339.032 470.925C339.447 471.067 339.826 471.298 340.167 471.617C340.507 471.933 340.779 472.352 340.982 472.874C341.184 473.396 341.285 474.039 341.285 474.803V475.335H334.978V474.249H340.007C340.007 473.787 339.914 473.375 339.73 473.013C339.549 472.651 339.289 472.365 338.952 472.155C338.618 471.946 338.224 471.841 337.77 471.841C337.269 471.841 336.836 471.965 336.47 472.214C336.108 472.459 335.829 472.778 335.634 473.173C335.438 473.567 335.341 473.989 335.341 474.44V475.165C335.341 475.783 335.447 476.306 335.66 476.736C335.877 477.162 336.177 477.487 336.56 477.711C336.944 477.931 337.39 478.041 337.897 478.041C338.228 478.041 338.526 477.995 338.792 477.903C339.062 477.807 339.295 477.665 339.49 477.477C339.685 477.285 339.836 477.047 339.943 476.763L341.157 477.104C341.029 477.516 340.815 477.878 340.513 478.19C340.211 478.499 339.838 478.741 339.394 478.915C338.95 479.085 338.451 479.17 337.897 479.17ZM351.23 468.091V479H349.909V469.476H349.845L347.182 471.244V469.902L349.909 468.091H351.23Z" fill="black"/>
<path d="M295.321 678V667.091H299.007C299.859 667.091 300.559 667.237 301.106 667.528C301.653 667.815 302.058 668.211 302.32 668.716C302.583 669.22 302.714 669.793 302.714 670.436C302.714 671.079 302.583 671.649 302.32 672.146C302.058 672.643 301.654 673.034 301.111 673.318C300.568 673.598 299.874 673.739 299.028 673.739H296.045V672.545H298.986C299.568 672.545 300.037 672.46 300.392 672.29C300.751 672.119 301.01 671.878 301.17 671.565C301.333 671.249 301.415 670.873 301.415 670.436C301.415 669.999 301.333 669.618 301.17 669.291C301.006 668.964 300.745 668.712 300.387 668.534C300.028 668.353 299.554 668.263 298.964 668.263H296.642V678H295.321ZM300.456 673.099L303.141 678H301.607L298.964 673.099H300.456ZM308.088 678.17C307.299 678.17 306.619 677.996 306.048 677.648C305.479 677.297 305.041 676.807 304.732 676.178C304.427 675.546 304.274 674.811 304.274 673.973C304.274 673.135 304.427 672.396 304.732 671.757C305.041 671.114 305.471 670.614 306.021 670.255C306.575 669.893 307.221 669.712 307.96 669.712C308.386 669.712 308.807 669.783 309.222 669.925C309.638 670.067 310.016 670.298 310.357 670.617C310.698 670.933 310.97 671.352 311.172 671.874C311.374 672.396 311.476 673.039 311.476 673.803V674.335H305.169V673.249H310.197C310.197 672.787 310.105 672.375 309.92 672.013C309.739 671.651 309.48 671.365 309.142 671.155C308.809 670.946 308.415 670.841 307.96 670.841C307.459 670.841 307.026 670.965 306.66 671.214C306.298 671.459 306.019 671.778 305.824 672.173C305.629 672.567 305.531 672.989 305.531 673.44V674.165C305.531 674.783 305.638 675.306 305.851 675.736C306.067 676.162 306.367 676.487 306.751 676.711C307.134 676.931 307.58 677.041 308.088 677.041C308.418 677.041 308.716 676.995 308.983 676.903C309.253 676.807 309.485 676.665 309.68 676.477C309.876 676.285 310.027 676.047 310.133 675.763L311.348 676.104C311.22 676.516 311.005 676.878 310.703 677.19C310.401 677.499 310.028 677.741 309.585 677.915C309.141 678.085 308.642 678.17 308.088 678.17ZM316.712 678.17C315.945 678.17 315.284 677.989 314.73 677.627C314.176 677.265 313.75 676.766 313.452 676.13C313.153 675.495 313.004 674.768 313.004 673.952C313.004 673.121 313.157 672.387 313.462 671.752C313.771 671.113 314.201 670.614 314.752 670.255C315.305 669.893 315.952 669.712 316.69 669.712C317.266 669.712 317.784 669.818 318.246 670.031C318.707 670.244 319.086 670.543 319.38 670.926C319.675 671.31 319.858 671.757 319.929 672.268H318.672C318.576 671.896 318.363 671.565 318.033 671.278C317.706 670.987 317.266 670.841 316.712 670.841C316.222 670.841 315.792 670.969 315.423 671.224C315.057 671.477 314.771 671.833 314.565 672.295C314.363 672.753 314.261 673.291 314.261 673.909C314.261 674.541 314.361 675.092 314.56 675.56C314.762 676.029 315.046 676.393 315.412 676.652C315.781 676.912 316.215 677.041 316.712 677.041C317.038 677.041 317.335 676.984 317.601 676.871C317.868 676.757 318.093 676.594 318.278 676.381C318.462 676.168 318.594 675.912 318.672 675.614H319.929C319.858 676.097 319.682 676.532 319.402 676.919C319.125 677.302 318.757 677.608 318.299 677.835C317.845 678.059 317.315 678.17 316.712 678.17ZM321.767 678V669.818H323.024V678H321.767ZM322.406 668.455C322.161 668.455 321.95 668.371 321.772 668.204C321.598 668.037 321.511 667.837 321.511 667.602C321.511 667.368 321.598 667.167 321.772 667C321.95 666.833 322.161 666.75 322.406 666.75C322.651 666.75 322.861 666.833 323.035 667C323.212 667.167 323.301 667.368 323.301 667.602C323.301 667.837 323.212 668.037 323.035 668.204C322.861 668.371 322.651 668.455 322.406 668.455ZM325.326 681.068V669.818H326.541V671.118H326.69C326.782 670.976 326.91 670.795 327.074 670.575C327.24 670.351 327.478 670.152 327.787 669.978C328.1 669.8 328.522 669.712 329.055 669.712C329.744 669.712 330.351 669.884 330.877 670.228C331.402 670.573 331.813 671.061 332.107 671.693C332.402 672.325 332.549 673.071 332.549 673.93C332.549 674.797 332.402 675.548 332.107 676.184C331.813 676.816 331.404 677.306 330.882 677.654C330.36 677.998 329.758 678.17 329.076 678.17C328.551 678.17 328.13 678.083 327.814 677.909C327.498 677.732 327.255 677.531 327.084 677.308C326.914 677.08 326.782 676.892 326.69 676.743H326.583V681.068H325.326ZM326.562 673.909C326.562 674.527 326.653 675.072 326.834 675.544C327.015 676.013 327.279 676.381 327.627 676.647C327.975 676.91 328.402 677.041 328.906 677.041C329.431 677.041 329.87 676.903 330.222 676.626C330.577 676.345 330.843 675.969 331.021 675.496C331.202 675.021 331.292 674.491 331.292 673.909C331.292 673.334 331.203 672.815 331.026 672.354C330.852 671.888 330.587 671.521 330.232 671.251C329.881 670.978 329.439 670.841 328.906 670.841C328.395 670.841 327.965 670.971 327.617 671.23C327.269 671.485 327.006 671.844 326.828 672.306C326.651 672.764 326.562 673.298 326.562 673.909ZM337.897 678.17C337.109 678.17 336.429 677.996 335.857 677.648C335.289 677.297 334.85 676.807 334.542 676.178C334.236 675.546 334.083 674.811 334.083 673.973C334.083 673.135 334.236 672.396 334.542 671.757C334.85 671.114 335.28 670.614 335.831 670.255C336.385 669.893 337.031 669.712 337.77 669.712C338.196 669.712 338.616 669.783 339.032 669.925C339.447 670.067 339.826 670.298 340.167 670.617C340.507 670.933 340.779 671.352 340.982 671.874C341.184 672.396 341.285 673.039 341.285 673.803V674.335H334.978V673.249H340.007C340.007 672.787 339.914 672.375 339.73 672.013C339.549 671.651 339.289 671.365 338.952 671.155C338.618 670.946 338.224 670.841 337.77 670.841C337.269 670.841 336.836 670.965 336.47 671.214C336.108 671.459 335.829 671.778 335.634 672.173C335.438 672.567 335.341 672.989 335.341 673.44V674.165C335.341 674.783 335.447 675.306 335.66 675.736C335.877 676.162 336.177 676.487 336.56 676.711C336.944 676.931 337.39 677.041 337.897 677.041C338.228 677.041 338.526 676.995 338.792 676.903C339.062 676.807 339.295 676.665 339.49 676.477C339.685 676.285 339.836 676.047 339.943 675.763L341.157 676.104C341.029 676.516 340.815 676.878 340.513 677.19C340.211 677.499 339.838 677.741 339.394 677.915C338.95 678.085 338.451 678.17 337.897 678.17ZM351.23 667.091V678H349.909V668.476H349.845L347.182 670.244V668.902L349.909 667.091H351.23Z" fill="black"/>
<path d="M614.321 479V468.091H618.007C618.859 468.091 619.559 468.237 620.106 468.528C620.653 468.815 621.058 469.211 621.32 469.716C621.583 470.22 621.714 470.793 621.714 471.436C621.714 472.079 621.583 472.649 621.32 473.146C621.058 473.643 620.654 474.034 620.111 474.318C619.568 474.598 618.874 474.739 618.028 474.739H615.045V473.545H617.986C618.568 473.545 619.037 473.46 619.392 473.29C619.751 473.119 620.01 472.878 620.17 472.565C620.333 472.249 620.415 471.873 620.415 471.436C620.415 470.999 620.333 470.618 620.17 470.291C620.006 469.964 619.745 469.712 619.387 469.534C619.028 469.353 618.554 469.263 617.964 469.263H615.642V479H614.321ZM619.456 474.099L622.141 479H620.607L617.964 474.099H619.456ZM627.088 479.17C626.299 479.17 625.619 478.996 625.048 478.648C624.479 478.297 624.041 477.807 623.732 477.178C623.427 476.546 623.274 475.811 623.274 474.973C623.274 474.135 623.427 473.396 623.732 472.757C624.041 472.114 624.471 471.614 625.021 471.255C625.575 470.893 626.221 470.712 626.96 470.712C627.386 470.712 627.807 470.783 628.222 470.925C628.638 471.067 629.016 471.298 629.357 471.617C629.698 471.933 629.97 472.352 630.172 472.874C630.374 473.396 630.476 474.039 630.476 474.803V475.335H624.169V474.249H629.197C629.197 473.787 629.105 473.375 628.92 473.013C628.739 472.651 628.48 472.365 628.142 472.155C627.809 471.946 627.415 471.841 626.96 471.841C626.459 471.841 626.026 471.965 625.66 472.214C625.298 472.459 625.019 472.778 624.824 473.173C624.629 473.567 624.531 473.989 624.531 474.44V475.165C624.531 475.783 624.638 476.306 624.851 476.736C625.067 477.162 625.367 477.487 625.751 477.711C626.134 477.931 626.58 478.041 627.088 478.041C627.418 478.041 627.716 477.995 627.983 477.903C628.253 477.807 628.485 477.665 628.68 477.477C628.876 477.285 629.027 477.047 629.133 476.763L630.348 477.104C630.22 477.516 630.005 477.878 629.703 478.19C629.401 478.499 629.028 478.741 628.585 478.915C628.141 479.085 627.642 479.17 627.088 479.17ZM635.712 479.17C634.945 479.17 634.284 478.989 633.73 478.627C633.176 478.265 632.75 477.766 632.452 477.13C632.153 476.495 632.004 475.768 632.004 474.952C632.004 474.121 632.157 473.387 632.462 472.752C632.771 472.113 633.201 471.614 633.752 471.255C634.305 470.893 634.952 470.712 635.69 470.712C636.266 470.712 636.784 470.818 637.246 471.031C637.707 471.244 638.086 471.543 638.38 471.926C638.675 472.31 638.858 472.757 638.929 473.268H637.672C637.576 472.896 637.363 472.565 637.033 472.278C636.706 471.987 636.266 471.841 635.712 471.841C635.222 471.841 634.792 471.969 634.423 472.224C634.057 472.477 633.771 472.833 633.565 473.295C633.363 473.753 633.261 474.291 633.261 474.909C633.261 475.541 633.361 476.092 633.56 476.56C633.762 477.029 634.046 477.393 634.412 477.652C634.781 477.912 635.215 478.041 635.712 478.041C636.038 478.041 636.335 477.984 636.601 477.871C636.868 477.757 637.093 477.594 637.278 477.381C637.462 477.168 637.594 476.912 637.672 476.614H638.929C638.858 477.097 638.682 477.532 638.402 477.919C638.125 478.302 637.757 478.608 637.299 478.835C636.845 479.059 636.315 479.17 635.712 479.17ZM640.767 479V470.818H642.024V479H640.767ZM641.406 469.455C641.161 469.455 640.95 469.371 640.772 469.204C640.598 469.037 640.511 468.837 640.511 468.602C640.511 468.368 640.598 468.167 640.772 468C640.95 467.833 641.161 467.75 641.406 467.75C641.651 467.75 641.861 467.833 642.035 468C642.212 468.167 642.301 468.368 642.301 468.602C642.301 468.837 642.212 469.037 642.035 469.204C641.861 469.371 641.651 469.455 641.406 469.455ZM644.326 482.068V470.818H645.541V472.118H645.69C645.782 471.976 645.91 471.795 646.074 471.575C646.24 471.351 646.478 471.152 646.787 470.978C647.1 470.8 647.522 470.712 648.055 470.712C648.744 470.712 649.351 470.884 649.877 471.228C650.402 471.573 650.813 472.061 651.107 472.693C651.402 473.325 651.549 474.071 651.549 474.93C651.549 475.797 651.402 476.548 651.107 477.184C650.813 477.816 650.404 478.306 649.882 478.654C649.36 478.998 648.758 479.17 648.076 479.17C647.551 479.17 647.13 479.083 646.814 478.909C646.498 478.732 646.255 478.531 646.084 478.308C645.914 478.08 645.782 477.892 645.69 477.743H645.583V482.068H644.326ZM645.562 474.909C645.562 475.527 645.653 476.072 645.834 476.544C646.015 477.013 646.279 477.381 646.627 477.647C646.975 477.91 647.402 478.041 647.906 478.041C648.431 478.041 648.87 477.903 649.222 477.626C649.577 477.345 649.843 476.969 650.021 476.496C650.202 476.021 650.292 475.491 650.292 474.909C650.292 474.334 650.203 473.815 650.026 473.354C649.852 472.888 649.587 472.521 649.232 472.251C648.881 471.978 648.439 471.841 647.906 471.841C647.395 471.841 646.965 471.971 646.617 472.23C646.269 472.485 646.006 472.844 645.828 473.306C645.651 473.764 645.562 474.298 645.562 474.909ZM656.897 479.17C656.109 479.17 655.429 478.996 654.857 478.648C654.289 478.297 653.85 477.807 653.542 477.178C653.236 476.546 653.083 475.811 653.083 474.973C653.083 474.135 653.236 473.396 653.542 472.757C653.85 472.114 654.28 471.614 654.831 471.255C655.385 470.893 656.031 470.712 656.77 470.712C657.196 470.712 657.616 470.783 658.032 470.925C658.447 471.067 658.826 471.298 659.167 471.617C659.507 471.933 659.779 472.352 659.982 472.874C660.184 473.396 660.285 474.039 660.285 474.803V475.335H653.978V474.249H659.007C659.007 473.787 658.914 473.375 658.73 473.013C658.549 472.651 658.289 472.365 657.952 472.155C657.618 471.946 657.224 471.841 656.77 471.841C656.269 471.841 655.836 471.965 655.47 472.214C655.108 472.459 654.829 472.778 654.634 473.173C654.438 473.567 654.341 473.989 654.341 474.44V475.165C654.341 475.783 654.447 476.306 654.66 476.736C654.877 477.162 655.177 477.487 655.56 477.711C655.944 477.931 656.39 478.041 656.897 478.041C657.228 478.041 657.526 477.995 657.792 477.903C658.062 477.807 658.295 477.665 658.49 477.477C658.685 477.285 658.836 477.047 658.943 476.763L660.157 477.104C660.029 477.516 659.815 477.878 659.513 478.19C659.211 478.499 658.838 478.741 658.394 478.915C657.95 479.085 657.451 479.17 656.897 479.17ZM666.395 479V478.041L669.996 474.099C670.418 473.638 670.766 473.237 671.04 472.896C671.313 472.551 671.516 472.228 671.647 471.926C671.782 471.621 671.849 471.301 671.849 470.967C671.849 470.584 671.757 470.252 671.572 469.971C671.391 469.691 671.143 469.474 670.827 469.321C670.511 469.169 670.156 469.092 669.761 469.092C669.342 469.092 668.977 469.179 668.664 469.353C668.355 469.524 668.115 469.763 667.945 470.072C667.778 470.381 667.695 470.744 667.695 471.159H666.438C666.438 470.52 666.585 469.959 666.88 469.476C667.174 468.993 667.576 468.616 668.083 468.347C668.595 468.077 669.168 467.942 669.804 467.942C670.443 467.942 671.01 468.077 671.503 468.347C671.997 468.616 672.384 468.98 672.664 469.439C672.945 469.897 673.085 470.406 673.085 470.967C673.085 471.369 673.012 471.761 672.867 472.145C672.725 472.525 672.476 472.949 672.121 473.418C671.77 473.883 671.281 474.451 670.656 475.122L668.206 477.743V477.828H673.277V479H666.395Z" fill="black"/>
<path d="M614.321 678V667.091H618.007C618.859 667.091 619.559 667.237 620.106 667.528C620.653 667.815 621.058 668.211 621.32 668.716C621.583 669.22 621.714 669.793 621.714 670.436C621.714 671.079 621.583 671.649 621.32 672.146C621.058 672.643 620.654 673.034 620.111 673.318C619.568 673.598 618.874 673.739 618.028 673.739H615.045V672.545H617.986C618.568 672.545 619.037 672.46 619.392 672.29C619.751 672.119 620.01 671.878 620.17 671.565C620.333 671.249 620.415 670.873 620.415 670.436C620.415 669.999 620.333 669.618 620.17 669.291C620.006 668.964 619.745 668.712 619.387 668.534C619.028 668.353 618.554 668.263 617.964 668.263H615.642V678H614.321ZM619.456 673.099L622.141 678H620.607L617.964 673.099H619.456ZM627.088 678.17C626.299 678.17 625.619 677.996 625.048 677.648C624.479 677.297 624.041 676.807 623.732 676.178C623.427 675.546 623.274 674.811 623.274 673.973C623.274 673.135 623.427 672.396 623.732 671.757C624.041 671.114 624.471 670.614 625.021 670.255C625.575 669.893 626.221 669.712 626.96 669.712C627.386 669.712 627.807 669.783 628.222 669.925C628.638 670.067 629.016 670.298 629.357 670.617C629.698 670.933 629.97 671.352 630.172 671.874C630.374 672.396 630.476 673.039 630.476 673.803V674.335H624.169V673.249H629.197C629.197 672.787 629.105 672.375 628.92 672.013C628.739 671.651 628.48 671.365 628.142 671.155C627.809 670.946 627.415 670.841 626.96 670.841C626.459 670.841 626.026 670.965 625.66 671.214C625.298 671.459 625.019 671.778 624.824 672.173C624.629 672.567 624.531 672.989 624.531 673.44V674.165C624.531 674.783 624.638 675.306 624.851 675.736C625.067 676.162 625.367 676.487 625.751 676.711C626.134 676.931 626.58 677.041 627.088 677.041C627.418 677.041 627.716 676.995 627.983 676.903C628.253 676.807 628.485 676.665 628.68 676.477C628.876 676.285 629.027 676.047 629.133 675.763L630.348 676.104C630.22 676.516 630.005 676.878 629.703 677.19C629.401 677.499 629.028 677.741 628.585 677.915C628.141 678.085 627.642 678.17 627.088 678.17ZM635.712 678.17C634.945 678.17 634.284 677.989 633.73 677.627C633.176 677.265 632.75 676.766 632.452 676.13C632.153 675.495 632.004 674.768 632.004 673.952C632.004 673.121 632.157 672.387 632.462 671.752C632.771 671.113 633.201 670.614 633.752 670.255C634.305 669.893 634.952 669.712 635.69 669.712C636.266 669.712 636.784 669.818 637.246 670.031C637.707 670.244 638.086 670.543 638.38 670.926C638.675 671.31 638.858 671.757 638.929 672.268H637.672C637.576 671.896 637.363 671.565 637.033 671.278C636.706 670.987 636.266 670.841 635.712 670.841C635.222 670.841 634.792 670.969 634.423 671.224C634.057 671.477 633.771 671.833 633.565 672.295C633.363 672.753 633.261 673.291 633.261 673.909C633.261 674.541 633.361 675.092 633.56 675.56C633.762 676.029 634.046 676.393 634.412 676.652C634.781 676.912 635.215 677.041 635.712 677.041C636.038 677.041 636.335 676.984 636.601 676.871C636.868 676.757 637.093 676.594 637.278 676.381C637.462 676.168 637.594 675.912 637.672 675.614H638.929C638.858 676.097 638.682 676.532 638.402 676.919C638.125 677.302 637.757 677.608 637.299 677.835C636.845 678.059 636.315 678.17 635.712 678.17ZM640.767 678V669.818H642.024V678H640.767ZM641.406 668.455C641.161 668.455 640.95 668.371 640.772 668.204C640.598 668.037 640.511 667.837 640.511 667.602C640.511 667.368 640.598 667.167 640.772 667C640.95 666.833 641.161 666.75 641.406 666.75C641.651 666.75 641.861 666.833 642.035 667C642.212 667.167 642.301 667.368 642.301 667.602C642.301 667.837 642.212 668.037 642.035 668.204C641.861 668.371 641.651 668.455 641.406 668.455ZM644.326 681.068V669.818H645.541V671.118H645.69C645.782 670.976 645.91 670.795 646.074 670.575C646.24 670.351 646.478 670.152 646.787 669.978C647.1 669.8 647.522 669.712 648.055 669.712C648.744 669.712 649.351 669.884 649.877 670.228C650.402 670.573 650.813 671.061 651.107 671.693C651.402 672.325 651.549 673.071 651.549 673.93C651.549 674.797 651.402 675.548 651.107 676.184C650.813 676.816 650.404 677.306 649.882 677.654C649.36 677.998 648.758 678.17 648.076 678.17C647.551 678.17 647.13 678.083 646.814 677.909C646.498 677.732 646.255 677.531 646.084 677.308C645.914 677.08 645.782 676.892 645.69 676.743H645.583V681.068H644.326ZM645.562 673.909C645.562 674.527 645.653 675.072 645.834 675.544C646.015 676.013 646.279 676.381 646.627 676.647C646.975 676.91 647.402 677.041 647.906 677.041C648.431 677.041 648.87 676.903 649.222 676.626C649.577 676.345 649.843 675.969 650.021 675.496C650.202 675.021 650.292 674.491 650.292 673.909C650.292 673.334 650.203 672.815 650.026 672.354C649.852 671.888 649.587 671.521 649.232 671.251C648.881 670.978 648.439 670.841 647.906 670.841C647.395 670.841 646.965 670.971 646.617 671.23C646.269 671.485 646.006 671.844 645.828 672.306C645.651 672.764 645.562 673.298 645.562 673.909ZM656.897 678.17C656.109 678.17 655.429 677.996 654.857 677.648C654.289 677.297 653.85 676.807 653.542 676.178C653.236 675.546 653.083 674.811 653.083 673.973C653.083 673.135 653.236 672.396 653.542 671.757C653.85 671.114 654.28 670.614 654.831 670.255C655.385 669.893 656.031 669.712 656.77 669.712C657.196 669.712 657.616 669.783 658.032 669.925C658.447 670.067 658.826 670.298 659.167 670.617C659.507 670.933 659.779 671.352 659.982 671.874C660.184 672.396 660.285 673.039 660.285 673.803V674.335H653.978V673.249H659.007C659.007 672.787 658.914 672.375 658.73 672.013C658.549 671.651 658.289 671.365 657.952 671.155C657.618 670.946 657.224 670.841 656.77 670.841C656.269 670.841 655.836 670.965 655.47 671.214C655.108 671.459 654.829 671.778 654.634 672.173C654.438 672.567 654.341 672.989 654.341 673.44V674.165C654.341 674.783 654.447 675.306 654.66 675.736C654.877 676.162 655.177 676.487 655.56 676.711C655.944 676.931 656.39 677.041 656.897 677.041C657.228 677.041 657.526 676.995 657.792 676.903C658.062 676.807 658.295 676.665 658.49 676.477C658.685 676.285 658.836 676.047 658.943 675.763L660.157 676.104C660.029 676.516 659.815 676.878 659.513 677.19C659.211 677.499 658.838 677.741 658.394 677.915C657.95 678.085 657.451 678.17 656.897 678.17ZM666.395 678V677.041L669.996 673.099C670.418 672.638 670.766 672.237 671.04 671.896C671.313 671.551 671.516 671.228 671.647 670.926C671.782 670.621 671.849 670.301 671.849 669.967C671.849 669.584 671.757 669.252 671.572 668.971C671.391 668.691 671.143 668.474 670.827 668.321C670.511 668.169 670.156 668.092 669.761 668.092C669.342 668.092 668.977 668.179 668.664 668.353C668.355 668.524 668.115 668.763 667.945 669.072C667.778 669.381 667.695 669.744 667.695 670.159H666.438C666.438 669.52 666.585 668.959 666.88 668.476C667.174 667.993 667.576 667.616 668.083 667.347C668.595 667.077 669.168 666.942 669.804 666.942C670.443 666.942 671.01 667.077 671.503 667.347C671.997 667.616 672.384 667.98 672.664 668.439C672.945 668.897 673.085 669.406 673.085 669.967C673.085 670.369 673.012 670.761 672.867 671.145C672.725 671.525 672.476 671.949 672.121 672.418C671.77 672.883 671.281 673.451 670.656 674.122L668.206 676.743V676.828H673.277V678H666.395Z" fill="black"/>
<path d="M933.321 479V468.091H937.007C937.859 468.091 938.559 468.237 939.106 468.528C939.653 468.815 940.058 469.211 940.32 469.716C940.583 470.22 940.714 470.793 940.714 471.436C940.714 472.079 940.583 472.649 940.32 473.146C940.058 473.643 939.654 474.034 939.111 474.318C938.568 474.598 937.874 474.739 937.028 474.739H934.045V473.545H936.986C937.568 473.545 938.037 473.46 938.392 473.29C938.751 473.119 939.01 472.878 939.17 472.565C939.333 472.249 939.415 471.873 939.415 471.436C939.415 470.999 939.333 470.618 939.17 470.291C939.006 469.964 938.745 469.712 938.387 469.534C938.028 469.353 937.554 469.263 936.964 469.263H934.642V479H933.321ZM938.456 474.099L941.141 479H939.607L936.964 474.099H938.456ZM946.088 479.17C945.299 479.17 944.619 478.996 944.048 478.648C943.479 478.297 943.041 477.807 942.732 477.178C942.427 476.546 942.274 475.811 942.274 474.973C942.274 474.135 942.427 473.396 942.732 472.757C943.041 472.114 943.471 471.614 944.021 471.255C944.575 470.893 945.221 470.712 945.96 470.712C946.386 470.712 946.807 470.783 947.222 470.925C947.638 471.067 948.016 471.298 948.357 471.617C948.698 471.933 948.97 472.352 949.172 472.874C949.374 473.396 949.476 474.039 949.476 474.803V475.335H943.169V474.249H948.197C948.197 473.787 948.105 473.375 947.92 473.013C947.739 472.651 947.48 472.365 947.142 472.155C946.809 471.946 946.415 471.841 945.96 471.841C945.459 471.841 945.026 471.965 944.66 472.214C944.298 472.459 944.019 472.778 943.824 473.173C943.629 473.567 943.531 473.989 943.531 474.44V475.165C943.531 475.783 943.638 476.306 943.851 476.736C944.067 477.162 944.367 477.487 944.751 477.711C945.134 477.931 945.58 478.041 946.088 478.041C946.418 478.041 946.716 477.995 946.983 477.903C947.253 477.807 947.485 477.665 947.68 477.477C947.876 477.285 948.027 477.047 948.133 476.763L949.348 477.104C949.22 477.516 949.005 477.878 948.703 478.19C948.401 478.499 948.028 478.741 947.585 478.915C947.141 479.085 946.642 479.17 946.088 479.17ZM954.712 479.17C953.945 479.17 953.284 478.989 952.73 478.627C952.176 478.265 951.75 477.766 951.452 477.13C951.153 476.495 951.004 475.768 951.004 474.952C951.004 474.121 951.157 473.387 951.462 472.752C951.771 472.113 952.201 471.614 952.752 471.255C953.305 470.893 953.952 470.712 954.69 470.712C955.266 470.712 955.784 470.818 956.246 471.031C956.707 471.244 957.086 471.543 957.38 471.926C957.675 472.31 957.858 472.757 957.929 473.268H956.672C956.576 472.896 956.363 472.565 956.033 472.278C955.706 471.987 955.266 471.841 954.712 471.841C954.222 471.841 953.792 471.969 953.423 472.224C953.057 472.477 952.771 472.833 952.565 473.295C952.363 473.753 952.261 474.291 952.261 474.909C952.261 475.541 952.361 476.092 952.56 476.56C952.762 477.029 953.046 477.393 953.412 477.652C953.781 477.912 954.215 478.041 954.712 478.041C955.038 478.041 955.335 477.984 955.601 477.871C955.868 477.757 956.093 477.594 956.278 477.381C956.462 477.168 956.594 476.912 956.672 476.614H957.929C957.858 477.097 957.682 477.532 957.402 477.919C957.125 478.302 956.757 478.608 956.299 478.835C955.845 479.059 955.315 479.17 954.712 479.17ZM959.767 479V470.818H961.024V479H959.767ZM960.406 469.455C960.161 469.455 959.95 469.371 959.772 469.204C959.598 469.037 959.511 468.837 959.511 468.602C959.511 468.368 959.598 468.167 959.772 468C959.95 467.833 960.161 467.75 960.406 467.75C960.651 467.75 960.861 467.833 961.035 468C961.212 468.167 961.301 468.368 961.301 468.602C961.301 468.837 961.212 469.037 961.035 469.204C960.861 469.371 960.651 469.455 960.406 469.455ZM963.326 482.068V470.818H964.541V472.118H964.69C964.782 471.976 964.91 471.795 965.074 471.575C965.24 471.351 965.478 471.152 965.787 470.978C966.1 470.8 966.522 470.712 967.055 470.712C967.744 470.712 968.351 470.884 968.877 471.228C969.402 471.573 969.813 472.061 970.107 472.693C970.402 473.325 970.549 474.071 970.549 474.93C970.549 475.797 970.402 476.548 970.107 477.184C969.813 477.816 969.404 478.306 968.882 478.654C968.36 478.998 967.758 479.17 967.076 479.17C966.551 479.17 966.13 479.083 965.814 478.909C965.498 478.732 965.255 478.531 965.084 478.308C964.914 478.08 964.782 477.892 964.69 477.743H964.583V482.068H963.326ZM964.562 474.909C964.562 475.527 964.653 476.072 964.834 476.544C965.015 477.013 965.279 477.381 965.627 477.647C965.975 477.91 966.402 478.041 966.906 478.041C967.431 478.041 967.87 477.903 968.222 477.626C968.577 477.345 968.843 476.969 969.021 476.496C969.202 476.021 969.292 475.491 969.292 474.909C969.292 474.334 969.203 473.815 969.026 473.354C968.852 472.888 968.587 472.521 968.232 472.251C967.881 471.978 967.439 471.841 966.906 471.841C966.395 471.841 965.965 471.971 965.617 472.23C965.269 472.485 965.006 472.844 964.828 473.306C964.651 473.764 964.562 474.298 964.562 474.909ZM975.897 479.17C975.109 479.17 974.429 478.996 973.857 478.648C973.289 478.297 972.85 477.807 972.542 477.178C972.236 476.546 972.083 475.811 972.083 474.973C972.083 474.135 972.236 473.396 972.542 472.757C972.85 472.114 973.28 471.614 973.831 471.255C974.385 470.893 975.031 470.712 975.77 470.712C976.196 470.712 976.616 470.783 977.032 470.925C977.447 471.067 977.826 471.298 978.167 471.617C978.507 471.933 978.779 472.352 978.982 472.874C979.184 473.396 979.285 474.039 979.285 474.803V475.335H972.978V474.249H978.007C978.007 473.787 977.914 473.375 977.73 473.013C977.549 472.651 977.289 472.365 976.952 472.155C976.618 471.946 976.224 471.841 975.77 471.841C975.269 471.841 974.836 471.965 974.47 472.214C974.108 472.459 973.829 472.778 973.634 473.173C973.438 473.567 973.341 473.989 973.341 474.44V475.165C973.341 475.783 973.447 476.306 973.66 476.736C973.877 477.162 974.177 477.487 974.56 477.711C974.944 477.931 975.39 478.041 975.897 478.041C976.228 478.041 976.526 477.995 976.792 477.903C977.062 477.807 977.295 477.665 977.49 477.477C977.685 477.285 977.836 477.047 977.943 476.763L979.157 477.104C979.029 477.516 978.815 477.878 978.513 478.19C978.211 478.499 977.838 478.741 977.394 478.915C976.95 479.085 976.451 479.17 975.897 479.17ZM989.081 479.149C988.378 479.149 987.751 479.028 987.201 478.787C986.654 478.545 986.219 478.21 985.896 477.78C985.576 477.347 985.402 476.844 985.374 476.273H986.716C986.744 476.624 986.865 476.928 987.078 477.184C987.291 477.436 987.57 477.631 987.914 477.77C988.259 477.908 988.641 477.977 989.06 477.977C989.528 477.977 989.944 477.896 990.306 477.732C990.668 477.569 990.952 477.342 991.158 477.05C991.364 476.759 991.467 476.422 991.467 476.038C991.467 475.637 991.368 475.284 991.169 474.978C990.97 474.669 990.679 474.428 990.295 474.254C989.912 474.08 989.443 473.993 988.889 473.993H988.016V472.821H988.889C989.322 472.821 989.702 472.743 990.029 472.587C990.359 472.43 990.617 472.21 990.801 471.926C990.99 471.642 991.084 471.308 991.084 470.925C991.084 470.555 991.002 470.234 990.839 469.961C990.675 469.687 990.445 469.474 990.146 469.321C989.852 469.169 989.504 469.092 989.102 469.092C988.726 469.092 988.371 469.162 988.037 469.3C987.707 469.435 987.437 469.632 987.227 469.891C987.018 470.147 986.904 470.456 986.886 470.818H985.608C985.629 470.246 985.801 469.746 986.125 469.316C986.448 468.883 986.87 468.545 987.392 468.304C987.918 468.062 988.495 467.942 989.124 467.942C989.798 467.942 990.377 468.078 990.86 468.352C991.343 468.622 991.714 468.979 991.973 469.423C992.233 469.866 992.362 470.346 992.362 470.861C992.362 471.475 992.201 471.999 991.877 472.432C991.558 472.865 991.123 473.165 990.572 473.332V473.418C991.261 473.531 991.799 473.824 992.186 474.297C992.574 474.765 992.767 475.346 992.767 476.038C992.767 476.631 992.605 477.164 992.282 477.636C991.963 478.105 991.526 478.474 990.972 478.744C990.418 479.014 989.788 479.149 989.081 479.149Z" fill="black"/>
<path d="M933.321 678V667.091H937.007C937.859 667.091 938.559 667.237 939.106 667.528C939.653 667.815 940.058 668.211 940.32 668.716C940.583 669.22 940.714 669.793 940.714 670.436C940.714 671.079 940.583 671.649 940.32 672.146C940.058 672.643 939.654 673.034 939.111 673.318C938.568 673.598 937.874 673.739 937.028 673.739H934.045V672.545H936.986C937.568 672.545 938.037 672.46 938.392 672.29C938.751 672.119 939.01 671.878 939.17 671.565C939.333 671.249 939.415 670.873 939.415 670.436C939.415 669.999 939.333 669.618 939.17 669.291C939.006 668.964 938.745 668.712 938.387 668.534C938.028 668.353 937.554 668.263 936.964 668.263H934.642V678H933.321ZM938.456 673.099L941.141 678H939.607L936.964 673.099H938.456ZM946.088 678.17C945.299 678.17 944.619 677.996 944.048 677.648C943.479 677.297 943.041 676.807 942.732 676.178C942.427 675.546 942.274 674.811 942.274 673.973C942.274 673.135 942.427 672.396 942.732 671.757C943.041 671.114 943.471 670.614 944.021 670.255C944.575 669.893 945.221 669.712 945.96 669.712C946.386 669.712 946.807 669.783 947.222 669.925C947.638 670.067 948.016 670.298 948.357 670.617C948.698 670.933 948.97 671.352 949.172 671.874C949.374 672.396 949.476 673.039 949.476 673.803V674.335H943.169V673.249H948.197C948.197 672.787 948.105 672.375 947.92 672.013C947.739 671.651 947.48 671.365 947.142 671.155C946.809 670.946 946.415 670.841 945.96 670.841C945.459 670.841 945.026 670.965 944.66 671.214C944.298 671.459 944.019 671.778 943.824 672.173C943.629 672.567 943.531 672.989 943.531 673.44V674.165C943.531 674.783 943.638 675.306 943.851 675.736C944.067 676.162 944.367 676.487 944.751 676.711C945.134 676.931 945.58 677.041 946.088 677.041C946.418 677.041 946.716 676.995 946.983 676.903C947.253 676.807 947.485 676.665 947.68 676.477C947.876 676.285 948.027 676.047 948.133 675.763L949.348 676.104C949.22 676.516 949.005 676.878 948.703 677.19C948.401 677.499 948.028 677.741 947.585 677.915C947.141 678.085 946.642 678.17 946.088 678.17ZM954.712 678.17C953.945 678.17 953.284 677.989 952.73 677.627C952.176 677.265 951.75 676.766 951.452 676.13C951.153 675.495 951.004 674.768 951.004 673.952C951.004 673.121 951.157 672.387 951.462 671.752C951.771 671.113 952.201 670.614 952.752 670.255C953.305 669.893 953.952 669.712 954.69 669.712C955.266 669.712 955.784 669.818 956.246 670.031C956.707 670.244 957.086 670.543 957.38 670.926C957.675 671.31 957.858 671.757 957.929 672.268H956.672C956.576 671.896 956.363 671.565 956.033 671.278C955.706 670.987 955.266 670.841 954.712 670.841C954.222 670.841 953.792 670.969 953.423 671.224C953.057 671.477 952.771 671.833 952.565 672.295C952.363 672.753 952.261 673.291 952.261 673.909C952.261 674.541 952.361 675.092 952.56 675.56C952.762 676.029 953.046 676.393 953.412 676.652C953.781 676.912 954.215 677.041 954.712 677.041C955.038 677.041 955.335 676.984 955.601 676.871C955.868 676.757 956.093 676.594 956.278 676.381C956.462 676.168 956.594 675.912 956.672 675.614H957.929C957.858 676.097 957.682 676.532 957.402 676.919C957.125 677.302 956.757 677.608 956.299 677.835C955.845 678.059 955.315 678.17 954.712 678.17ZM959.767 678V669.818H961.024V678H959.767ZM960.406 668.455C960.161 668.455 959.95 668.371 959.772 668.204C959.598 668.037 959.511 667.837 959.511 667.602C959.511 667.368 959.598 667.167 959.772 667C959.95 666.833 960.161 666.75 960.406 666.75C960.651 666.75 960.861 666.833 961.035 667C961.212 667.167 961.301 667.368 961.301 667.602C961.301 667.837 961.212 668.037 961.035 668.204C960.861 668.371 960.651 668.455 960.406 668.455ZM963.326 681.068V669.818H964.541V671.118H964.69C964.782 670.976 964.91 670.795 965.074 670.575C965.24 670.351 965.478 670.152 965.787 669.978C966.1 669.8 966.522 669.712 967.055 669.712C967.744 669.712 968.351 669.884 968.877 670.228C969.402 670.573 969.813 671.061 970.107 671.693C970.402 672.325 970.549 673.071 970.549 673.93C970.549 674.797 970.402 675.548 970.107 676.184C969.813 676.816 969.404 677.306 968.882 677.654C968.36 677.998 967.758 678.17 967.076 678.17C966.551 678.17 966.13 678.083 965.814 677.909C965.498 677.732 965.255 677.531 965.084 677.308C964.914 677.08 964.782 676.892 964.69 676.743H964.583V681.068H963.326ZM964.562 673.909C964.562 674.527 964.653 675.072 964.834 675.544C965.015 676.013 965.279 676.381 965.627 676.647C965.975 676.91 966.402 677.041 966.906 677.041C967.431 677.041 967.87 676.903 968.222 676.626C968.577 676.345 968.843 675.969 969.021 675.496C969.202 675.021 969.292 674.491 969.292 673.909C969.292 673.334 969.203 672.815 969.026 672.354C968.852 671.888 968.587 671.521 968.232 671.251C967.881 670.978 967.439 670.841 966.906 670.841C966.395 670.841 965.965 670.971 965.617 671.23C965.269 671.485 965.006 671.844 964.828 672.306C964.651 672.764 964.562 673.298 964.562 673.909ZM975.897 678.17C975.109 678.17 974.429 677.996 973.857 677.648C973.289 677.297 972.85 676.807 972.542 676.178C972.236 675.546 972.083 674.811 972.083 673.973C972.083 673.135 972.236 672.396 972.542 671.757C972.85 671.114 973.28 670.614 973.831 670.255C974.385 669.893 975.031 669.712 975.77 669.712C976.196 669.712 976.616 669.783 977.032 669.925C977.447 670.067 977.826 670.298 978.167 670.617C978.507 670.933 978.779 671.352 978.982 671.874C979.184 672.396 979.285 673.039 979.285 673.803V674.335H972.978V673.249H978.007C978.007 672.787 977.914 672.375 977.73 672.013C977.549 671.651 977.289 671.365 976.952 671.155C976.618 670.946 976.224 670.841 975.77 670.841C975.269 670.841 974.836 670.965 974.47 671.214C974.108 671.459 973.829 671.778 973.634 672.173C973.438 672.567 973.341 672.989 973.341 673.44V674.165C973.341 674.783 973.447 675.306 973.66 675.736C973.877 676.162 974.177 676.487 974.56 676.711C974.944 676.931 975.39 677.041 975.897 677.041C976.228 677.041 976.526 676.995 976.792 676.903C977.062 676.807 977.295 676.665 977.49 676.477C977.685 676.285 977.836 676.047 977.943 675.763L979.157 676.104C979.029 676.516 978.815 676.878 978.513 677.19C978.211 677.499 977.838 677.741 977.394 677.915C976.95 678.085 976.451 678.17 975.897 678.17ZM989.081 678.149C988.378 678.149 987.751 678.028 987.201 677.787C986.654 677.545 986.219 677.21 985.896 676.78C985.576 676.347 985.402 675.844 985.374 675.273H986.716C986.744 675.624 986.865 675.928 987.078 676.184C987.291 676.436 987.57 676.631 987.914 676.77C988.259 676.908 988.641 676.977 989.06 676.977C989.528 676.977 989.944 676.896 990.306 676.732C990.668 676.569 990.952 676.342 991.158 676.05C991.364 675.759 991.467 675.422 991.467 675.038C991.467 674.637 991.368 674.284 991.169 673.978C990.97 673.669 990.679 673.428 990.295 673.254C989.912 673.08 989.443 672.993 988.889 672.993H988.016V671.821H988.889C989.322 671.821 989.702 671.743 990.029 671.587C990.359 671.43 990.617 671.21 990.801 670.926C990.99 670.642 991.084 670.308 991.084 669.925C991.084 669.555 991.002 669.234 990.839 668.961C990.675 668.687 990.445 668.474 990.146 668.321C989.852 668.169 989.504 668.092 989.102 668.092C988.726 668.092 988.371 668.162 988.037 668.3C987.707 668.435 987.437 668.632 987.227 668.891C987.018 669.147 986.904 669.456 986.886 669.818H985.608C985.629 669.246 985.801 668.746 986.125 668.316C986.448 667.883 986.87 667.545 987.392 667.304C987.918 667.062 988.495 666.942 989.124 666.942C989.798 666.942 990.377 667.078 990.86 667.352C991.343 667.622 991.714 667.979 991.973 668.423C992.233 668.866 992.362 669.346 992.362 669.861C992.362 670.475 992.201 670.999 991.877 671.432C991.558 671.865 991.123 672.165 990.572 672.332V672.418C991.261 672.531 991.799 672.824 992.186 673.297C992.574 673.765 992.767 674.346 992.767 675.038C992.767 675.631 992.605 676.164 992.282 676.636C991.963 677.105 991.526 677.474 990.972 677.744C990.418 678.014 989.788 678.149 989.081 678.149Z" fill="black"/>
</svg>
