<svg width="512" height="512" viewBox="0 0 512 512" fill="none" xmlns="http://www.w3.org/2000/svg">
<g clip-path="url(#clip0_147_2)">
<path d="M400 0H112C50.1441 0 0 50.1441 0 112V400C0 461.856 50.1441 512 112 512H400C461.856 512 512 461.856 512 400V112C512 50.1441 461.856 0 400 0Z" fill="url(#paint0_linear_147_2)"/>
<path d="M203.504 180.76C203.73 173.053 206.11 167.5 210.644 164.1C215.404 160.473 223.45 158.66 234.784 158.66C243.624 158.66 249.857 160.247 253.484 163.42C257.337 166.367 259.264 170.333 259.264 175.32C259.264 176.68 259.264 178.38 259.264 180.42C259.264 182.233 259.15 184.387 258.924 186.88C258.924 189.147 258.697 191.867 258.244 195.04C263.91 183.707 271.05 174.753 279.664 168.18C288.277 161.607 297.91 158.32 308.564 158.32C312.19 158.32 316.837 158.887 322.504 160.02C328.397 160.927 334.517 163.307 340.864 167.16C343.584 168.747 346.304 171.58 349.024 175.66C351.744 179.513 352.31 185.407 350.724 193.34C349.59 201.047 346.984 206.827 342.904 210.68C339.05 214.533 334.404 216.46 328.964 216.46C326.697 216.46 324.544 216.12 322.504 215.44C320.69 214.76 318.764 213.967 316.724 213.06C314.457 211.927 311.85 210.907 308.904 210C305.957 208.867 302.444 208.3 298.364 208.3C287.484 208.3 278.644 213.4 271.844 223.6C265.044 233.8 259.83 246.493 256.204 261.68C255.977 269.387 255.75 276.64 255.524 283.44C255.524 290.013 255.41 296.133 255.184 301.8C255.184 307.467 255.07 312.793 254.844 317.78C254.844 322.54 254.844 326.847 254.844 330.7C254.844 335.687 253.257 339.653 250.084 342.6C246.91 345.32 243.284 347.247 239.204 348.38C235.35 349.74 232.064 350.42 229.344 350.42C220.05 350.42 213.024 348.947 208.264 346C203.73 343.053 200.784 339.2 199.424 334.44C198.064 329.453 197.384 324.127 197.384 318.46C197.384 313.927 197.497 308.26 197.724 301.46C198.177 294.66 198.744 287.86 199.424 281.06C200.104 274.26 200.784 268.593 201.464 264.06L203.504 180.76Z" fill="white"/>
</g>
<defs>
<linearGradient id="paint0_linear_147_2" x1="36" y1="52" x2="475" y2="512" gradientUnits="userSpaceOnUse">
<stop stop-color="#BE90FD"/>
<stop offset="0.519231" stop-color="#763CD2"/>
<stop offset="0.96875" stop-color="#4E0DBD"/>
</linearGradient>
<clipPath id="clip0_147_2">
<rect width="512" height="512" fill="white"/>
</clipPath>
</defs>
</svg>
