<svg width="75" height="75" viewBox="0 0 75 75" fill="none" xmlns="http://www.w3.org/2000/svg">
<g clip-path="url(#clip0_243_98)">
<g filter="url(#filter0_d_243_98)">
<path d="M37.8222 13C27.4626 13 24.4328 13.0107 23.8438 13.0595C21.7178 13.2363 20.3949 13.571 18.9537 14.2886C17.843 14.8402 16.967 15.4795 16.1025 16.3757C14.5281 18.0101 13.5738 20.0209 13.2284 22.4111C13.0605 23.5714 13.0116 23.8081 13.0017 29.7351C12.9979 31.7107 13.0017 34.3108 13.0017 37.7984C13.0017 48.15 13.0131 51.1768 13.0628 51.7646C13.2345 53.8334 13.559 55.135 14.246 56.5587C15.559 59.284 18.0666 61.3299 21.0209 62.0933C22.0438 62.3567 23.1736 62.5017 24.624 62.5704C25.2385 62.5972 31.5019 62.6162 37.7692 62.6162C44.0364 62.6162 50.3037 62.6086 50.9029 62.5781C52.5823 62.4991 53.5575 62.3681 54.6358 62.0895C57.6091 61.3223 60.071 59.3069 61.4107 56.5435C62.0844 55.1541 62.426 53.8029 62.5806 51.8421C62.6142 51.4146 62.6283 44.5987 62.6283 37.7919C62.6283 30.984 62.613 24.1806 62.5794 23.7531C62.4229 21.7607 62.0813 20.4209 61.3859 19.0048C60.8153 17.8456 60.1817 16.9799 59.2618 16.0948C57.6202 14.5268 55.6125 13.5725 53.2201 13.2275C52.061 13.0599 51.83 13.0103 45.8987 13H37.8222Z" fill="url(#paint0_radial_243_98)"/>
</g>
<path d="M37.8222 13C27.4626 13 24.4328 13.0107 23.8438 13.0595C21.7178 13.2363 20.3949 13.571 18.9537 14.2886C17.843 14.8402 16.967 15.4795 16.1025 16.3757C14.5281 18.0101 13.5738 20.0209 13.2284 22.4111C13.0605 23.5714 13.0116 23.8081 13.0017 29.7351C12.9979 31.7107 13.0017 34.3108 13.0017 37.7984C13.0017 48.15 13.0131 51.1768 13.0628 51.7646C13.2345 53.8334 13.559 55.135 14.246 56.5587C15.559 59.284 18.0666 61.3299 21.0209 62.0933C22.0438 62.3567 23.1736 62.5017 24.624 62.5704C25.2385 62.5972 31.5019 62.6162 37.7692 62.6162C44.0364 62.6162 50.3037 62.6086 50.9029 62.5781C52.5823 62.4991 53.5575 62.3681 54.6358 62.0895C57.6091 61.3223 60.071 59.3069 61.4107 56.5435C62.0844 55.1541 62.426 53.8029 62.5806 51.8421C62.6142 51.4146 62.6283 44.5987 62.6283 37.7919C62.6283 30.984 62.613 24.1806 62.5794 23.7531C62.4229 21.7607 62.0813 20.4209 61.3859 19.0048C60.8153 17.8456 60.1817 16.9799 59.2618 16.0948C57.6202 14.5268 55.6125 13.5725 53.2201 13.2275C52.061 13.0599 51.83 13.0103 45.8987 13H37.8222Z" fill="url(#paint1_radial_243_98)"/>
<path d="M37.8106 19.4888C32.835 19.4888 32.2106 19.5105 30.2564 19.5995C28.3059 19.6888 26.9746 19.9976 25.8097 20.4506C24.6048 20.9186 23.5826 21.5446 22.5643 22.5633C21.5452 23.5817 20.9192 24.6039 20.4497 25.8085C19.9955 26.9738 19.6864 28.3056 19.5986 30.2553C19.5112 32.2095 19.4883 32.8344 19.4883 37.8102C19.4883 42.786 19.5104 43.4085 19.599 45.3628C19.6887 47.3132 19.9974 48.6446 20.4501 49.8095C20.9185 51.0145 21.5444 52.0367 22.5631 53.0551C23.5811 54.0742 24.6032 54.7017 25.8074 55.1697C26.9731 55.6228 28.3048 55.9316 30.2548 56.0209C32.2091 56.1098 32.8331 56.1316 37.8084 56.1316C42.7844 56.1316 43.4069 56.1098 45.3611 56.0209C47.3115 55.9316 48.6444 55.6228 49.81 55.1697C51.0146 54.7017 52.0353 54.0742 53.0532 53.0551C54.0723 52.0367 54.6983 51.0145 55.1677 49.8099C55.6181 48.6446 55.9273 47.3129 56.0189 45.3632C56.1067 43.4089 56.1296 42.786 56.1296 37.8102C56.1296 32.8344 56.1067 32.2099 56.0189 30.2556C55.9273 28.3052 55.6181 26.9738 55.1677 25.8089C54.6983 24.6039 54.0723 23.5817 53.0532 22.5633C52.0341 21.5442 51.015 20.9182 49.8089 20.4506C48.6409 19.9976 47.3089 19.6888 45.3585 19.5995C43.4042 19.5105 42.7821 19.4888 37.8049 19.4888H37.8106ZM36.1671 22.7904C36.6549 22.7897 37.1992 22.7904 37.8106 22.7904C42.7023 22.7904 43.2821 22.808 45.2138 22.8958C47.0001 22.9775 47.9696 23.276 48.6154 23.5267C49.4703 23.8588 50.0799 24.2558 50.7207 24.897C51.362 25.5383 51.7589 26.149 52.0917 27.004C52.3425 27.649 52.6414 28.6185 52.7227 30.4049C52.8105 32.3363 52.8295 32.9164 52.8295 37.806C52.8295 42.6955 52.8105 43.2757 52.7227 45.207C52.641 46.9934 52.3425 47.9629 52.0917 48.608C51.7597 49.463 51.362 50.0718 50.7207 50.7126C50.0795 51.3539 49.4707 51.7508 48.6154 52.0829C47.9703 52.3348 47.0001 52.6326 45.2138 52.7142C43.2825 52.802 42.7023 52.8211 37.8106 52.8211C32.9186 52.8211 32.3388 52.802 30.4075 52.7142C28.6212 52.6318 27.6517 52.3333 27.0056 52.0825C26.1506 51.7505 25.5399 51.3535 24.8987 50.7122C24.2574 50.071 23.8605 49.4618 23.5276 48.6064C23.2769 47.9614 22.978 46.9919 22.8967 45.2055C22.8089 43.2741 22.7914 42.694 22.7914 37.8014C22.7914 32.9088 22.8089 32.3317 22.8967 30.4003C22.9784 28.614 23.2769 27.6445 23.5276 26.9986C23.8597 26.1436 24.2574 25.5329 24.8987 24.8917C25.5399 24.2504 26.1506 23.8535 27.0056 23.5206C27.6514 23.2687 28.6212 22.971 30.4075 22.8889C32.0976 22.8126 32.7526 22.7897 36.1671 22.7859V22.7904ZM47.5902 25.8326C46.3764 25.8326 45.3917 26.8162 45.3917 28.0304C45.3917 29.2441 46.3764 30.2289 47.5902 30.2289C48.8039 30.2289 49.7887 29.2441 49.7887 28.0304C49.7887 26.8166 48.8039 25.8318 47.5902 25.8318V25.8326ZM37.8106 28.4014C32.6148 28.4014 28.4021 32.6141 28.4021 37.8102C28.4021 43.0062 32.6148 47.2171 37.8106 47.2171C43.0065 47.2171 47.2176 43.0062 47.2176 37.8102C47.2176 32.6141 43.0065 28.4014 37.8106 28.4014ZM37.8106 31.703C41.1832 31.703 43.9176 34.4371 43.9176 37.8102C43.9176 41.1828 41.1832 43.9173 37.8106 43.9173C34.4377 43.9173 31.7037 41.1828 31.7037 37.8102C31.7037 34.4371 34.4377 31.703 37.8106 31.703Z" fill="white"/>
</g>
<defs>
<filter id="filter0_d_243_98" x="4.31313" y="6.05051" width="70.4769" height="70.4647" filterUnits="userSpaceOnUse" color-interpolation-filters="sRGB">
<feFlood flood-opacity="0" result="BackgroundImageFix"/>
<feColorMatrix in="SourceAlpha" type="matrix" values="0 0 0 0 0 0 0 0 0 0 0 0 0 0 0 0 0 0 127 0" result="hardAlpha"/>
<feOffset dx="1.73737" dy="3.47475"/>
<feGaussianBlur stdDeviation="5.21212"/>
<feComposite in2="hardAlpha" operator="out"/>
<feColorMatrix type="matrix" values="0 0 0 0 0 0 0 0 0 0 0 0 0 0 0 0 0 0 0.25 0"/>
<feBlend mode="normal" in2="BackgroundImageFix" result="effect1_dropShadow_243_98"/>
<feBlend mode="normal" in="SourceGraphic" in2="effect1_dropShadow_243_98" result="shape"/>
</filter>
<radialGradient id="paint0_radial_243_98" cx="0" cy="0" r="1" gradientUnits="userSpaceOnUse" gradientTransform="translate(26.1826 66.4377) rotate(-90) scale(49.1734 45.7462)">
<stop stop-color="#FFDD55"/>
<stop offset="0.1" stop-color="#FFDD55"/>
<stop offset="0.5" stop-color="#FF543E"/>
<stop offset="1" stop-color="#C837AB"/>
</radialGradient>
<radialGradient id="paint1_radial_243_98" cx="0" cy="0" r="1" gradientTransform="matrix(4.31536 21.5531 -88.8626 17.7934 4.687 16.5743)" gradientUnits="userSpaceOnUse">
<stop stop-color="#3771C8"/>
<stop offset="0.128" stop-color="#3771C8"/>
<stop offset="1" stop-color="#6600FF" stop-opacity="0"/>
</radialGradient>
<clipPath id="clip0_243_98">
<rect width="75" height="75" fill="white"/>
</clipPath>
</defs>
</svg>
