<svg width="75" height="75" viewBox="0 0 75 75" fill="none" xmlns="http://www.w3.org/2000/svg">
<g clip-path="url(#clip0_251_535)">
<g filter="url(#filter0_d_251_535)">
<path d="M50.7048 63.1019H25.2952C18.5052 63.1019 13 57.5857 13 50.7804V25.3198C13 18.5162 18.5052 13 25.2952 13H50.7048C57.4948 13 63 18.5162 63 25.3198V50.7804C63.0017 57.5857 57.4965 63.1019 50.7048 63.1019Z" fill="black"/>
</g>
<path d="M33.7769 34.3229V32.8084C33.2524 32.7252 32.7225 32.6798 32.1915 32.6724C27.0505 32.6621 22.5003 35.9993 20.9561 40.9114C19.4119 45.8235 21.2344 51.1727 25.453 54.1141C21.0266 49.3673 21.2791 41.9234 26.0164 37.4881C28.1274 35.5136 30.8899 34.3869 33.7769 34.3229Z" fill="#25F4EE"/>
<path d="M34.0617 51.4723C36.9354 51.4688 39.2972 49.2004 39.4243 46.3227V20.6487H44.105C44.0093 20.1125 43.9639 19.5686 43.9693 19.0239H37.5675V44.6721C37.461 47.5636 35.0923 49.8544 32.2049 49.8596C31.3426 49.8527 30.4924 49.6393 29.728 49.24C30.2237 49.928 30.8746 50.4888 31.6278 50.8768C32.3809 51.2647 33.2149 51.4688 34.0617 51.4723ZM52.8463 29.3593V27.9325C51.1235 27.9325 49.4384 27.423 48.0042 26.4678C49.2614 27.9336 50.9614 28.9488 52.8463 29.3593Z" fill="#25F4EE"/>
<path d="M48.0066 26.4696C46.5927 24.8569 45.8136 22.7833 45.8149 20.6367H44.1058C44.3259 21.8237 44.7853 22.9532 45.456 23.9561C46.1268 24.9591 46.9947 25.8143 48.0066 26.4696ZM32.1919 39.0889C29.2238 39.1044 26.8293 41.5277 26.8448 44.5018C26.8497 45.4781 27.1194 46.4347 27.6249 47.2693C28.1305 48.1039 28.853 48.7851 29.715 49.2401C27.9785 46.8374 28.5144 43.4778 30.9123 41.736C31.8285 41.071 32.9312 40.7138 34.0625 40.7154C34.6001 40.7222 35.1343 40.8066 35.6479 40.9649V34.4367C35.124 34.3575 34.5933 34.3162 34.0625 34.3128H33.7774V39.2765C33.2603 39.1354 32.7261 39.0734 32.1919 39.0889Z" fill="#FE2C55"/>
<path d="M52.8469 29.3594V34.3231C49.6579 34.317 46.5516 33.3053 43.9683 31.4316V44.4726C43.9545 50.9801 38.6864 56.2485 32.1918 56.2485C29.7799 56.2531 27.426 55.5074 25.4551 54.1143C29.8747 58.8767 37.3105 59.1486 42.0651 54.7201C43.2478 53.6185 44.1912 52.2844 44.8364 50.8011C45.4815 49.3177 45.8146 47.7171 45.8148 46.099V33.0942C48.407 34.9547 51.5168 35.9529 54.7055 35.9478V29.559C54.0802 29.5556 53.4584 29.4902 52.8469 29.3594Z" fill="#FE2C55"/>
<path d="M43.968 44.4743V31.4333C46.5595 33.2953 49.6698 34.2936 52.8587 34.287V29.3232C50.9749 28.9242 49.2713 27.9227 48.0046 26.4696C46.9931 25.8138 46.1255 24.9584 45.4549 23.9556C44.7842 22.9527 44.3245 21.8235 44.1037 20.6367H39.423V46.3228C39.3011 49.2952 36.8001 51.6049 33.8337 51.4844C33.0222 51.4514 32.2286 51.2345 31.5128 50.8499C30.797 50.4654 30.1775 49.9232 29.701 49.2642C27.0746 47.8787 26.0663 44.6223 27.4491 41.9907C27.9028 41.1267 28.5826 40.4025 29.4156 39.8959C30.2486 39.3893 31.2034 39.1193 32.1779 39.1147C32.7155 39.1199 33.2497 39.2025 33.7633 39.3625V34.3248C27.2807 34.435 22.114 39.8651 22.2239 46.3606C22.2736 49.3022 23.4215 52.1183 25.4411 54.2537C27.4314 55.6008 29.7885 56.2988 32.1899 56.2519C38.6862 56.2502 43.9543 50.9819 43.968 44.4743Z" fill="white"/>
</g>
<defs>
<filter id="filter0_d_251_535" x="4.12354" y="5.89269" width="71.3117" height="71.4135" filterUnits="userSpaceOnUse" color-interpolation-filters="sRGB">
<feFlood flood-opacity="0" result="BackgroundImageFix"/>
<feColorMatrix in="SourceAlpha" type="matrix" values="0 0 0 0 0 0 0 0 0 0 0 0 0 0 0 0 0 0 127 0" result="hardAlpha"/>
<feOffset dx="1.77938" dy="3.54854"/>
<feGaussianBlur stdDeviation="5.32792"/>
<feComposite in2="hardAlpha" operator="out"/>
<feColorMatrix type="matrix" values="0 0 0 0 0 0 0 0 0 0 0 0 0 0 0 0 0 0 0.25 0"/>
<feBlend mode="normal" in2="BackgroundImageFix" result="effect1_dropShadow_251_535"/>
<feBlend mode="normal" in="SourceGraphic" in2="effect1_dropShadow_251_535" result="shape"/>
</filter>
<clipPath id="clip0_251_535">
<rect width="75" height="75" fill="white"/>
</clipPath>
</defs>
</svg>
