<svg width="163" height="201" viewBox="0 0 163 201" fill="none" xmlns="http://www.w3.org/2000/svg">
<g filter="url(#filter0_d_156_51)">
<path d="M10.12 22.44C10.3467 14.7333 12.7267 9.18001 17.26 5.78001C22.02 2.15335 30.0667 0.340027 41.4 0.340027C50.24 0.340027 56.4733 1.92669 60.1 5.10002C63.9533 8.04668 65.88 12.0133 65.88 17C65.88 18.36 65.88 20.06 65.88 22.1C65.88 23.9134 65.7667 26.0667 65.54 28.56C65.54 30.8267 65.3133 33.5467 64.86 36.72C70.5267 25.3867 77.6667 16.4333 86.28 9.86002C94.8933 3.28667 104.527 0 115.18 0C118.807 0 123.453 0.56668 129.12 1.70001C135.013 2.60668 141.133 4.98667 147.48 8.84001C150.2 10.4267 152.92 13.26 155.64 17.34C158.36 21.1933 158.927 27.0867 157.34 35.02C156.207 42.7267 153.6 48.5067 149.52 52.36C145.667 56.2134 141.02 58.14 135.58 58.14C133.313 58.14 131.16 57.8 129.12 57.12C127.307 56.44 125.38 55.6467 123.34 54.74C121.073 53.6067 118.467 52.5867 115.52 51.68C112.573 50.5467 109.06 49.98 104.98 49.98C94.1 49.98 85.26 55.08 78.46 65.28C71.66 75.48 66.4467 88.1733 62.82 103.36C62.5933 111.067 62.3667 118.32 62.14 125.12C62.14 131.693 62.0267 137.813 61.8 143.48C61.8 149.147 61.6867 154.473 61.46 159.46C61.46 164.22 61.46 168.527 61.46 172.38C61.46 177.367 59.8733 181.333 56.7 184.28C53.5267 187 49.9 188.927 45.82 190.06C41.9667 191.42 38.68 192.1 35.96 192.1C26.6667 192.1 19.64 190.627 14.88 187.68C10.3467 184.733 7.4 180.88 6.04 176.12C4.68 171.133 4 165.807 4 160.14C4 155.607 4.11333 149.94 4.34 143.14C4.79333 136.34 5.36 129.54 6.04 122.74C6.72 115.94 7.4 110.273 8.08 105.74L10.12 22.44Z" fill="url(#paint0_linear_156_51)" shape-rendering="crispEdges"/>
</g>
<defs>
<filter id="filter0_d_156_51" x="0" y="0" width="162.217" height="200.1" filterUnits="userSpaceOnUse" color-interpolation-filters="sRGB">
<feFlood flood-opacity="0" result="BackgroundImageFix"/>
<feColorMatrix in="SourceAlpha" type="matrix" values="0 0 0 0 0 0 0 0 0 0 0 0 0 0 0 0 0 0 127 0" result="hardAlpha"/>
<feOffset dy="4"/>
<feGaussianBlur stdDeviation="2"/>
<feComposite in2="hardAlpha" operator="out"/>
<feColorMatrix type="matrix" values="0 0 0 0 0.384314 0 0 0 0 0 0 0 0 0 0.917647 0 0 0 1 0"/>
<feBlend mode="normal" in2="BackgroundImageFix" result="effect1_dropShadow_156_51"/>
<feBlend mode="normal" in="SourceGraphic" in2="effect1_dropShadow_156_51" result="shape"/>
</filter>
<linearGradient id="paint0_linear_156_51" x1="81.1084" y1="0" x2="81.1084" y2="192.1" gradientUnits="userSpaceOnUse">
<stop stop-color="white"/>
<stop offset="0.7" stop-color="white" stop-opacity="0.85"/>
<stop offset="1" stop-color="white" stop-opacity="0.65"/>
</linearGradient>
</defs>
</svg>
