<svg width="75" height="75" viewBox="0 0 75 75" fill="none" xmlns="http://www.w3.org/2000/svg">
<g clip-path="url(#clip0_243_89)">
<g filter="url(#filter0_d_243_89)">
<circle cx="38.1919" cy="35.1919" r="25.1919" fill="#F5F5F5"/>
</g>
<path d="M45.5898 34.352C45.947 34.352 46.2423 34.6176 46.2891 34.962L46.2956 35.0578V41.6462C46.2956 43.2771 45.019 44.6099 43.4106 44.6998L43.2371 44.7047H32.8852C31.2542 44.7047 29.9215 43.4281 29.8315 41.8198L29.8267 41.6462V35.0578C29.8267 34.668 30.1427 34.352 30.5325 34.352C30.8898 34.352 31.1851 34.6176 31.2318 34.962L31.2383 35.0578V41.6462C31.2383 42.5102 31.9037 43.2189 32.7501 43.2876L32.8852 43.2931H43.2371C44.1011 43.2931 44.8097 42.6277 44.8784 41.7813L44.8839 41.6462V35.0578C44.8839 34.668 45.1999 34.352 45.5898 34.352ZM32.8526 30.7913L37.5545 26.0891C37.8049 25.8386 38.1967 25.8157 38.473 26.0204L38.5522 26.0886L43.2622 30.7908C43.538 31.0662 43.5384 31.5131 43.263 31.789C43.0126 32.0398 42.6206 32.0629 42.3441 31.8581L42.2648 31.7898L38.7612 28.2924L38.762 39.2973C38.762 39.6546 38.4966 39.9499 38.152 39.9967L38.0562 40.0031C37.6989 40.0031 37.4036 39.7376 37.3569 39.3931L37.3504 39.2973L37.3496 28.2896L33.8508 31.7894C33.6002 32.04 33.2081 32.0628 32.9318 31.8578L32.8526 31.7894C32.602 31.5389 32.5793 31.1467 32.7843 30.8704L32.8526 30.7913Z" fill="#212121"/>
</g>
<defs>
<filter id="filter0_d_243_89" x="4.31313" y="3.05051" width="71.2323" height="71.2323" filterUnits="userSpaceOnUse" color-interpolation-filters="sRGB">
<feFlood flood-opacity="0" result="BackgroundImageFix"/>
<feColorMatrix in="SourceAlpha" type="matrix" values="0 0 0 0 0 0 0 0 0 0 0 0 0 0 0 0 0 0 127 0" result="hardAlpha"/>
<feOffset dx="1.73737" dy="3.47475"/>
<feGaussianBlur stdDeviation="5.21212"/>
<feComposite in2="hardAlpha" operator="out"/>
<feColorMatrix type="matrix" values="0 0 0 0 0 0 0 0 0 0 0 0 0 0 0 0 0 0 0.25 0"/>
<feBlend mode="normal" in2="BackgroundImageFix" result="effect1_dropShadow_243_89"/>
<feBlend mode="normal" in="SourceGraphic" in2="effect1_dropShadow_243_89" result="shape"/>
</filter>
<clipPath id="clip0_243_89">
<rect width="75" height="75" fill="white"/>
</clipPath>
</defs>
</svg>
