<svg width="75" height="75" viewBox="0 0 75 75" fill="none" xmlns="http://www.w3.org/2000/svg">
<g clip-path="url(#clip0_243_95)">
<g filter="url(#filter0_d_243_95)">
<path d="M51.3628 12H23.0216C16.9345 12 12 16.9344 12 23.0213V51.3619C12 57.4488 16.9345 62.3833 23.0216 62.3833H51.3628C57.4499 62.3833 62.3844 57.4488 62.3844 51.3619V23.0213C62.3844 16.9344 57.4499 12 51.3628 12Z" fill="url(#paint0_linear_243_95)" shape-rendering="crispEdges"/>
</g>
<g filter="url(#filter1_d_243_95)">
<path d="M32.3671 30.2345C32.3896 29.4697 32.6258 28.9186 33.0757 28.5812C33.5481 28.2213 34.3466 28.0413 35.4713 28.0413C36.3486 28.0413 36.9672 28.1988 37.3271 28.5137C37.7095 28.8061 37.9007 29.1997 37.9007 29.6946C37.9007 29.8296 37.9007 29.9983 37.9007 30.2007C37.9007 30.3807 37.8895 30.5944 37.867 30.8418C37.867 31.0667 37.8445 31.3367 37.7995 31.6516C38.3618 30.5269 39.0704 29.6384 39.9252 28.9861C40.78 28.3337 41.736 28.0076 42.7932 28.0076C43.1531 28.0076 43.6143 28.0638 44.1766 28.1763C44.7615 28.2662 45.3688 28.5024 45.9987 28.8848C46.2686 29.0423 46.5385 29.3235 46.8085 29.7283C47.0784 30.1107 47.1346 30.6956 46.9772 31.4829C46.8647 32.2477 46.606 32.8212 46.2011 33.2036C45.8187 33.586 45.3576 33.7772 44.8177 33.7772C44.5928 33.7772 44.3791 33.7435 44.1766 33.676C43.9967 33.6085 43.8055 33.5298 43.603 33.4398C43.3781 33.3274 43.1194 33.2261 42.827 33.1362C42.5345 33.0237 42.1859 32.9675 41.781 32.9675C40.7013 32.9675 39.824 33.4736 39.1491 34.4858C38.4743 35.498 37.957 36.7577 37.597 38.2647C37.5745 39.0295 37.5521 39.7493 37.5296 40.4242C37.5296 41.0765 37.5183 41.6838 37.4958 42.2462C37.4958 42.8085 37.4846 43.3371 37.4621 43.832C37.4621 44.3043 37.4621 44.7317 37.4621 45.1141C37.4621 45.609 37.3046 46.0026 36.9897 46.295C36.6748 46.565 36.3149 46.7562 35.91 46.8686C35.5276 47.0036 35.2014 47.0711 34.9315 47.0711C34.0092 47.0711 33.3119 46.9249 32.8395 46.6324C32.3896 46.34 32.0972 45.9576 31.9622 45.4853C31.8272 44.9904 31.7598 44.4618 31.7598 43.8994C31.7598 43.4496 31.771 42.8872 31.7935 42.2124C31.8385 41.5376 31.8947 40.8628 31.9622 40.188C32.0297 39.5132 32.0972 38.9508 32.1647 38.5009L32.3671 30.2345Z" fill="url(#paint1_linear_243_95)" shape-rendering="crispEdges"/>
</g>
</g>
<defs>
<filter id="filter0_d_243_95" x="3.31313" y="5.05051" width="71.2328" height="71.2318" filterUnits="userSpaceOnUse" color-interpolation-filters="sRGB">
<feFlood flood-opacity="0" result="BackgroundImageFix"/>
<feColorMatrix in="SourceAlpha" type="matrix" values="0 0 0 0 0 0 0 0 0 0 0 0 0 0 0 0 0 0 127 0" result="hardAlpha"/>
<feOffset dx="1.73737" dy="3.47475"/>
<feGaussianBlur stdDeviation="5.21212"/>
<feComposite in2="hardAlpha" operator="out"/>
<feColorMatrix type="matrix" values="0 0 0 0 0 0 0 0 0 0 0 0 0 0 0 0 0 0 0.25 0"/>
<feBlend mode="normal" in2="BackgroundImageFix" result="effect1_dropShadow_243_95"/>
<feBlend mode="normal" in="SourceGraphic" in2="effect1_dropShadow_243_95" result="shape"/>
</filter>
<filter id="filter1_d_243_95" x="28.285" y="28.0076" width="22.2537" height="26.013" filterUnits="userSpaceOnUse" color-interpolation-filters="sRGB">
<feFlood flood-opacity="0" result="BackgroundImageFix"/>
<feColorMatrix in="SourceAlpha" type="matrix" values="0 0 0 0 0 0 0 0 0 0 0 0 0 0 0 0 0 0 127 0" result="hardAlpha"/>
<feOffset dy="3.47475"/>
<feGaussianBlur stdDeviation="1.73737"/>
<feComposite in2="hardAlpha" operator="out"/>
<feColorMatrix type="matrix" values="0 0 0 0 0.384314 0 0 0 0 0 0 0 0 0 0.917647 0 0 0 1 0"/>
<feBlend mode="normal" in2="BackgroundImageFix" result="effect1_dropShadow_243_95"/>
<feBlend mode="normal" in="SourceGraphic" in2="effect1_dropShadow_243_95" result="shape"/>
</filter>
<linearGradient id="paint0_linear_243_95" x1="25.5473" y1="12.0455" x2="62.3736" y2="70.5049" gradientUnits="userSpaceOnUse">
<stop stop-color="#BE90FD"/>
<stop offset="0.519231" stop-color="#7B2FFF"/>
<stop offset="0.96875" stop-color="#5600EC" stop-opacity="0.7"/>
</linearGradient>
<linearGradient id="paint1_linear_243_95" x1="39.412" y1="28.0076" x2="39.412" y2="47.0711" gradientUnits="userSpaceOnUse">
<stop stop-color="white"/>
<stop offset="0.7" stop-color="white" stop-opacity="0.85"/>
<stop offset="1" stop-color="white" stop-opacity="0.65"/>
</linearGradient>
<clipPath id="clip0_243_95">
<rect width="75" height="75" fill="white"/>
</clipPath>
</defs>
</svg>
